<svg width="24" height="24" viewBox="0 0 24 24" fill="none" xmlns="http://www.w3.org/2000/svg">
<path fill-rule="evenodd" clip-rule="evenodd" d="M4.3986 4.3986C6.34317 2.45406 9.0317 1.25 12 1.25C14.9683 1.25 17.6568 2.45406 19.6014 4.3986C21.5459 6.34317 22.75 9.0317 22.75 12C22.75 14.9683 21.5459 17.6568 19.6014 19.6014C17.6568 21.5459 14.9683 22.75 12 22.75C9.0317 22.75 6.34317 21.5459 4.3986 19.6014C2.45406 17.6568 1.25 14.9683 1.25 12C1.25 9.0317 2.45407 6.34316 4.3986 4.3986ZM12 2.75C9.4455 2.75 7.13403 3.78452 5.45926 5.45926C3.78451 7.13404 2.75 9.4455 2.75 12C2.75 14.5545 3.78452 16.866 5.45926 18.5407C7.13403 20.2155 9.4455 21.25 12 21.25C14.5545 21.25 16.866 20.2155 18.5407 18.5407C20.2155 16.866 21.25 14.5545 21.25 12C21.25 9.4455 20.2155 7.13403 18.5407 5.45926C16.866 3.78452 14.5545 2.75 12 2.75Z" fill="#A80102"/>
<path fill-rule="evenodd" clip-rule="evenodd" d="M12 18.5C12.6903 18.5 13.25 17.9403 13.25 17.25C13.25 16.5597 12.6903 16 12 16C11.3097 16 10.75 16.5597 10.75 17.25C10.75 17.9403 11.3097 18.5 12 18.5Z" fill="#A80102"/>
<path fill-rule="evenodd" clip-rule="evenodd" d="M12 5.25C12.4142 5.25 12.75 5.58579 12.75 6V14C12.75 14.4142 12.4142 14.75 12 14.75C11.5858 14.75 11.25 14.4142 11.25 14V6C11.25 5.58579 11.5858 5.25 12 5.25Z" fill="#A80102"/>
</svg>
