<svg width="41" height="40" viewBox="0 0 41 40" fill="none" xmlns="http://www.w3.org/2000/svg">
<rect x="0.5" width="40" height="40" rx="4" fill="#F9F9F9"/>
<path d="M29.3901 18.3033C29.5165 17.4554 29.4751 16.5874 29.2658 15.7527C28.9893 14.6501 28.4199 13.6059 27.5577 12.7437C26.6954 11.8814 25.6512 11.312 24.5487 11.0356C23.714 10.8263 22.8459 10.7848 21.998 10.9112" stroke="#043E5F" stroke-width="2" stroke-linecap="round" stroke-linejoin="round"/>
<path d="M25.5953 17.9017C25.7307 16.9934 25.4488 16.0349 24.7496 15.3357C24.0503 14.6365 23.0918 14.3546 22.1836 14.49" stroke="#043E5F" stroke-width="2" stroke-linecap="round" stroke-linejoin="round"/>
<path d="M15.6874 12.3975C16.0507 12.3975 16.3854 12.5945 16.5617 12.9121L17.7849 15.1155C17.9451 15.404 17.9526 15.7529 17.805 16.0481L16.6266 18.4049C16.6266 18.4049 16.9681 20.1606 18.3973 21.5898C19.8265 23.019 21.5764 23.3546 21.5764 23.3546L23.9328 22.1764C24.2282 22.0287 24.5774 22.0364 24.866 22.1968L27.0756 23.4253C27.3929 23.6017 27.5897 23.9363 27.5897 24.2993V26.8361C27.5897 28.1279 26.3898 29.061 25.1657 28.6479C22.6518 27.7997 18.7494 26.1846 16.276 23.7111C13.8026 21.2377 12.1875 17.3354 11.3392 14.8214C10.9262 13.5974 11.8592 12.3975 13.151 12.3975H15.6874Z" stroke="#043E5F" stroke-width="2" stroke-linejoin="round"/>
</svg>
