<svg width="63" height="65" viewBox="0 0 63 65" fill="none" xmlns="http://www.w3.org/2000/svg">
<g filter="url(#filter0_d_3217_23121)">
<path d="M4.00002 55.0001L8.00015 56.5001L8 48.5L4.00002 55.0001Z" fill="#043E5F"/>
<path d="M49 6.00014H59V0L49 6.00014Z" fill="#043E5F"/>
<path fill-rule="evenodd" clip-rule="evenodd" d="M5.92885 28.1345L4 55C4.69072 54.137 5.36266 53.2969 6.01749 52.4781C24.7575 29.0477 29.4809 23.142 59 0L32.0653 1.93382C25.8115 7.12082 20.4216 11.5965 16.9731 14.4702C13.9924 18.2638 10.1778 22.9702 5.92885 28.1345Z" fill="url(#paint0_radial_3217_23121)"/>
<path d="M12.2324 34.2273C12.0367 34.4218 11.8269 34.5626 11.6032 34.6496C11.3795 34.731 11.1631 34.7544 10.9539 34.7198C10.7419 34.6824 10.5541 34.5842 10.3905 34.4253L10.8033 34.015C10.9556 34.14 11.1294 34.2013 11.3246 34.1991C11.5198 34.1912 11.7138 34.0913 11.9067 33.8996C12.0911 33.7163 12.1907 33.5271 12.2054 33.332C12.2202 33.1312 12.1557 32.9585 12.0119 32.8138C11.8991 32.7003 11.7762 32.6391 11.6433 32.6302C11.5104 32.6214 11.3788 32.645 11.2485 32.7012C11.1182 32.7573 10.9525 32.8431 10.7514 32.9585C10.5048 33.102 10.2966 33.2074 10.1267 33.2748C9.95964 33.3393 9.77998 33.36 9.58771 33.3368C9.39547 33.3079 9.2077 33.2013 9.02441 33.0168C8.86368 32.8551 8.76242 32.671 8.72062 32.4644C8.67882 32.2578 8.69785 32.0471 8.7777 31.8324C8.86038 31.6149 8.99819 31.4102 9.1911 31.2185C9.46913 30.9421 9.76518 30.786 10.0792 30.7502C10.3961 30.7116 10.6801 30.7959 10.9312 31.0031L10.5057 31.4261C10.3787 31.3267 10.2204 31.2867 10.0309 31.3059C9.8385 31.3223 9.65578 31.4165 9.48272 31.5885C9.32101 31.7492 9.23139 31.9229 9.21385 32.1095C9.19349 32.2933 9.25804 32.4604 9.40749 32.6107C9.51464 32.7185 9.63184 32.7769 9.75909 32.7857C9.88918 32.7918 10.0165 32.7695 10.1411 32.719C10.2658 32.6628 10.4315 32.5771 10.6383 32.4617C10.8876 32.3211 11.0987 32.2185 11.2714 32.1539C11.4413 32.0866 11.6238 32.0659 11.8189 32.092C12.0112 32.1152 12.2003 32.2204 12.3865 32.4076C12.5303 32.5523 12.6273 32.7266 12.6776 32.9304C12.7279 33.1342 12.7173 33.3505 12.6459 33.5794C12.5745 33.8083 12.4367 34.0243 12.2324 34.2273ZM12.2565 30.3627C12.2006 30.1532 12.2041 29.9297 12.2671 29.6923C12.33 29.4493 12.4622 29.2277 12.6637 29.0275C12.8708 28.8216 13.1073 28.6851 13.3734 28.6181C13.6423 28.5482 13.9153 28.5561 14.1922 28.6418C14.4663 28.7246 14.7218 28.8852 14.9586 29.1235C15.1927 29.359 15.3531 29.6169 15.44 29.8972C15.5268 30.1774 15.5358 30.4532 15.4671 30.7246C15.4013 30.9931 15.2648 31.2302 15.0577 31.4361C14.8591 31.6335 14.6395 31.7643 14.3989 31.8286C14.1583 31.8873 13.932 31.8894 13.72 31.8351L15.247 33.3713L14.8597 33.7562L11.4421 30.3177L11.8293 29.9328L12.2565 30.3627ZM14.5629 29.5169C14.3881 29.341 14.2003 29.223 13.9997 29.163C13.799 29.103 13.6039 29.0996 13.4142 29.1528C13.2274 29.2031 13.0616 29.3002 12.9169 29.444C12.7751 29.585 12.6784 29.7516 12.6269 29.9438C12.5754 30.1303 12.5791 30.3269 12.6379 30.5335C12.6966 30.7345 12.812 30.9215 12.9841 31.0946C13.1589 31.2705 13.348 31.3899 13.5515 31.4527C13.755 31.5099 13.9515 31.5147 14.1412 31.4672C14.3308 31.4141 14.4966 31.317 14.6384 31.176C14.7831 31.0322 14.8812 30.867 14.9327 30.6805C14.9842 30.4883 14.9805 30.2917 14.9218 30.0907C14.8602 29.8869 14.7405 29.6956 14.5629 29.5169ZM17.5158 26.4212C17.5891 26.4949 17.6624 26.5772 17.7356 26.6679L15.8717 28.5205C16.1143 28.7362 16.3714 28.8388 16.6429 28.8284C16.9145 28.8122 17.1525 28.7026 17.3567 28.4996C17.5241 28.3332 17.625 28.1568 17.6596 27.9702C17.6941 27.778 17.6692 27.594 17.5849 27.4184L18.0019 27.0039C18.1623 27.2901 18.2193 27.5971 18.1731 27.9251C18.124 28.2502 17.9604 28.5509 17.6824 28.8273C17.4611 29.0472 17.2132 29.195 16.9386 29.2705C16.6668 29.3432 16.3911 29.3381 16.1113 29.2552C15.8287 29.1695 15.5676 29.0061 15.3279 28.765C15.0882 28.5238 14.9264 28.2645 14.8424 27.9871C14.7584 27.7096 14.755 27.4367 14.8321 27.1682C14.9093 26.8941 15.0614 26.6442 15.2884 26.4186C15.5097 26.1987 15.7534 26.0524 16.0195 25.9796C16.2856 25.9069 16.5486 25.9105 16.8086 25.9905C17.0685 26.0648 17.3043 26.2084 17.5158 26.4212ZM17.0354 26.7379C16.8888 26.5904 16.7307 26.4966 16.5611 26.4565C16.3887 26.4135 16.2189 26.4215 16.0519 26.4804C15.8848 26.5336 15.7332 26.6279 15.5971 26.7632C15.4013 26.9578 15.2959 27.1866 15.281 27.4496C15.2689 27.7098 15.3629 27.9604 15.563 28.2014L17.0354 26.7379ZM17.9668 26.142C17.7272 25.9009 17.5667 25.643 17.4855 25.3684C17.4015 25.091 17.3953 24.818 17.4668 24.5495C17.5412 24.2782 17.689 24.0326 17.9103 23.8126C18.1968 23.5278 18.5014 23.3633 18.824 23.319C19.1494 23.2719 19.4645 23.3422 19.7694 23.5298L19.3524 23.9443C19.1717 23.8419 18.9823 23.8074 18.7842 23.8408C18.5889 23.8713 18.4062 23.9711 18.236 24.1403C18.0147 24.3603 17.9121 24.6145 17.9282 24.9031C17.9415 25.1888 18.0863 25.4706 18.3626 25.7487C18.6418 26.0295 18.9256 26.1789 19.214 26.1967C19.5025 26.2146 19.7573 26.1135 19.9786 25.8936C20.1488 25.7244 20.2512 25.5437 20.2857 25.3515C20.3203 25.1592 20.2855 24.9682 20.1814 24.7784L20.5985 24.3639C20.7729 24.6642 20.8384 24.9798 20.795 25.3106C20.7487 25.6385 20.5852 25.9421 20.3043 26.2213C20.083 26.4412 19.8365 26.5875 19.5647 26.6603C19.2958 26.7301 19.0229 26.7222 18.746 26.6366C18.4691 26.5509 18.2093 26.386 17.9668 26.142ZM19.3653 21.6897C19.2915 21.763 19.2037 21.7995 19.1019 21.7992C19.0001 21.7989 18.9125 21.7619 18.8392 21.6881C18.7659 21.6143 18.7294 21.5265 18.7297 21.4247C18.73 21.3229 18.767 21.2353 18.8408 21.162C18.9117 21.0915 18.9967 21.0578 19.0957 21.061C19.1975 21.0613 19.2851 21.0983 19.3584 21.1721C19.4317 21.2458 19.4682 21.3336 19.4679 21.4355C19.4704 21.5345 19.4362 21.6192 19.3653 21.6897ZM19.929 21.8823L22.2469 24.2144L21.8596 24.5993L19.5417 22.2672L19.929 21.8823ZM21.5948 22.5276C21.3579 22.2893 21.1989 22.0329 21.1177 21.7583C21.0337 21.4808 21.026 21.2093 21.0947 20.9436C21.1662 20.6751 21.3056 20.438 21.5127 20.2321C21.7169 20.0291 21.9379 19.8968 22.1757 19.8353C22.4135 19.7738 22.6355 19.7731 22.8418 19.8331L22.4189 19.4076L22.8104 19.0184L25.1282 21.3505L24.7367 21.7396L24.3053 21.3055C24.3641 21.5178 24.3619 21.7455 24.299 21.9886C24.236 22.226 24.1038 22.4448 23.9024 22.645C23.6953 22.8508 23.4573 22.9859 23.1884 23.0501C22.9195 23.1143 22.6452 23.1022 22.3655 23.0137C22.0857 22.9251 21.8288 22.7631 21.5948 22.5276ZM23.5736 20.5693C23.3987 20.3934 23.211 20.2755 23.0104 20.2155C22.8097 20.1555 22.6146 20.152 22.4249 20.2052C22.2353 20.2527 22.0681 20.3484 21.9234 20.4922C21.7787 20.636 21.6806 20.8011 21.6292 20.9877C21.5777 21.1742 21.5813 21.3679 21.6401 21.5689C21.6989 21.7699 21.8157 21.9584 21.9905 22.1343C22.1682 22.313 22.3587 22.4338 22.5622 22.4967C22.7628 22.5567 22.958 22.5629 23.1476 22.5154C23.3345 22.4651 23.5002 22.368 23.6449 22.2242C23.7896 22.0804 23.8877 21.9152 23.9391 21.7287C23.9906 21.5365 23.987 21.3399 23.9282 21.1389C23.8666 20.9351 23.7484 20.7452 23.5736 20.5693ZM23.0399 17.166L26.1699 20.3151L25.7827 20.7L22.6527 17.5509L23.0399 17.166ZM29.3388 17.2246C29.0636 17.4982 28.7491 17.6839 28.3952 17.7818C28.0386 17.8769 27.6794 17.8758 27.3176 17.7785C26.9559 17.6756 26.6312 17.4795 26.3436 17.1901C26.056 16.9007 25.8632 16.5763 25.7653 16.2167C25.6674 15.8516 25.6685 15.4924 25.7686 15.1391C25.8658 14.783 26.0521 14.4682 26.3272 14.1947C26.6053 13.9184 26.9226 13.7327 27.2793 13.6376C27.6332 13.5397 27.9895 13.5407 28.3484 13.6408C28.7073 13.7409 29.032 13.9371 29.3225 14.2293C29.6129 14.5215 29.8071 14.8473 29.905 15.2069C30.0029 15.5664 30.0032 15.9242 29.906 16.2803C29.8059 16.6335 29.6168 16.9483 29.3388 17.2246ZM29.0047 16.8885C29.2118 16.6826 29.3496 16.4497 29.4183 16.1897C29.4898 15.9268 29.4836 15.6595 29.3995 15.3878C29.3184 15.1132 29.1607 14.8581 28.9267 14.6226C28.6898 14.3843 28.4358 14.2252 28.1645 14.1451C27.8932 14.0595 27.6274 14.0502 27.3669 14.1173C27.1065 14.1844 26.8713 14.3222 26.6614 14.5309C26.4515 14.7396 26.3121 14.9739 26.2435 15.2339C26.1748 15.4939 26.1811 15.7612 26.2622 16.0358C26.3435 16.3048 26.5025 16.5584 26.7394 16.7967C26.9734 17.0322 27.2261 17.1928 27.4973 17.2784C27.7714 17.3613 28.0387 17.3692 28.2991 17.3021C28.5624 17.2322 28.7976 17.0943 29.0047 16.8885ZM30.2582 12.2502L29.7688 12.7367L31.7695 14.7495L31.3822 15.1344L29.3815 13.1216L29.0794 13.4219L28.7622 13.1027L29.0643 12.8024L28.8994 12.6364C28.6399 12.3754 28.5177 12.1191 28.5326 11.8674C28.5475 11.61 28.7039 11.3333 29.0018 11.0373L29.3233 11.3607C29.153 11.5299 29.0663 11.6838 29.0631 11.8223C29.0598 11.9553 29.1343 12.0983 29.2866 12.2515L29.4516 12.4175L29.941 11.9311L30.2582 12.2502ZM31.6587 10.8582L31.1693 11.3446L33.17 13.3575L32.7827 13.7424L30.782 11.7296L30.4799 12.0299L30.1627 11.7107L30.4648 11.4104L30.2999 11.2444C30.0404 10.9834 29.9182 10.7271 29.9331 10.4754C29.948 10.218 30.1044 9.94133 30.4023 9.64525L30.7238 9.96867C30.5535 10.1379 30.4668 10.2917 30.4636 10.4303C30.4603 10.5633 30.5348 10.7063 30.6871 10.8595L30.8521 11.0255L31.3415 10.5391L31.6587 10.8582ZM34.9909 9.05208C35.0642 9.12584 35.1375 9.20809 35.2107 9.29882L33.3468 11.1514C33.5894 11.3671 33.8465 11.4697 34.118 11.4593C34.3896 11.4431 34.6275 11.3335 34.8318 11.1305C34.9992 10.9641 35.1001 10.7877 35.1346 10.6011C35.1692 10.4089 35.1443 10.2249 35.0599 10.0493L35.477 9.6348C35.6373 9.92096 35.6944 10.228 35.6481 10.556C35.5991 10.8811 35.4355 11.1818 35.1575 11.4582C34.9362 11.6781 34.6883 11.8259 34.4137 11.9014C34.1419 11.9741 33.8662 11.969 33.5864 11.8861C33.3038 11.8004 33.0427 11.637 32.803 11.3959C32.5633 11.1547 32.4015 10.8954 32.3175 10.618C32.2335 10.3405 32.23 10.0676 32.3072 9.79911C32.3844 9.52498 32.5365 9.27513 32.7635 9.04954C32.9848 8.8296 33.2284 8.68326 33.4945 8.61053C33.7606 8.5378 34.0237 8.54143 34.2836 8.62142C34.5436 8.69575 34.7794 8.8393 34.9909 9.05208ZM34.5105 9.36881C34.3638 9.22129 34.2057 9.12747 34.0362 9.08736C33.8637 9.0444 33.694 9.05237 33.527 9.11126C33.3599 9.1645 33.2083 9.25879 33.0721 9.39414C32.8764 9.5887 32.771 9.81749 32.7561 10.0805C32.744 10.3407 32.838 10.5913 33.0381 10.8323L34.5105 9.36881ZM35.1956 7.4612C35.1312 7.26019 35.1247 7.06076 35.1762 6.86293C35.2306 6.66228 35.3485 6.47171 35.5301 6.29125L35.9277 6.69127L35.8255 6.79278C35.3915 7.22421 35.4085 7.6754 35.8766 8.14634L37.137 9.41449L36.7498 9.79939L34.4319 7.46737L34.8192 7.08246L35.1956 7.4612Z" fill="#EFEFEF"/>
</g>
<defs>
<filter id="filter0_d_3217_23121" x="0" y="0" width="63" height="64.5" filterUnits="userSpaceOnUse" color-interpolation-filters="sRGB">
<feFlood flood-opacity="0" result="BackgroundImageFix"/>
<feColorMatrix in="SourceAlpha" type="matrix" values="0 0 0 0 0 0 0 0 0 0 0 0 0 0 0 0 0 0 127 0" result="hardAlpha"/>
<feOffset dy="4"/>
<feGaussianBlur stdDeviation="2"/>
<feComposite in2="hardAlpha" operator="out"/>
<feColorMatrix type="matrix" values="0 0 0 0 0 0 0 0 0 0 0 0 0 0 0 0 0 0 0.2 0"/>
<feBlend mode="normal" in2="BackgroundImageFix" result="effect1_dropShadow_3217_23121"/>
<feBlend mode="normal" in="SourceGraphic" in2="effect1_dropShadow_3217_23121" result="shape"/>
</filter>
<radialGradient id="paint0_radial_3217_23121" cx="0" cy="0" r="1" gradientUnits="userSpaceOnUse" gradientTransform="translate(20.466 20.4578) rotate(55.6922) scale(51.3454)">
<stop stop-color="#3C9BD0"/>
<stop offset="1" stop-color="#043E5F"/>
</radialGradient>
</defs>
</svg>
