<svg width="75" height="72" viewBox="0 0 75 72" fill="none" xmlns="http://www.w3.org/2000/svg">
<path d="M44.0613 33.318H74.8801L57.1879 13.0078L41.7785 30.6975L26.3691 13.0078L0 43.2789H52.7382L44.0613 33.318ZM57.1879 20.1329L64.5968 28.638H49.7791L57.1879 20.1329ZM26.3691 20.1329L42.4549 38.5991H10.2833L26.3691 20.1329Z" fill="black"/>
<path d="M41.6424 12.4879C45.0908 12.4879 47.8863 9.69236 47.8863 6.24393C47.8863 2.7955 45.0908 0 41.6424 0C38.1939 0 35.3984 2.7955 35.3984 6.24393C35.3984 9.69236 38.1939 12.4879 41.6424 12.4879Z" fill="black"/>
<path d="M11.396 63.8557H14.3137L12.8548 59.6629L11.396 63.8557ZM15.0861 66.0869L14.5589 64.579H11.1385L10.6113 66.0869H8.6866L11.6044 58.4615H14.1053L17.0353 66.0869H15.0861ZM21.3103 60.1288H22.242V60.9379H20.9548C20.3745 60.9379 20.0843 61.2485 20.0843 61.8696V66.0869H18.1841V60.141H20.0843V60.8643C20.2478 60.374 20.6564 60.1288 21.3103 60.1288ZM27.5637 64.9836V61.2444C27.5637 61.0891 27.5392 60.9869 27.4902 60.9379C27.4411 60.8889 27.339 60.8643 27.1837 60.8643H25.4305C25.2671 60.8643 25.1608 60.8889 25.1118 60.9379C25.0709 60.9869 25.0505 61.0891 25.0505 61.2444V64.9836C25.0505 65.147 25.0709 65.2533 25.1118 65.3023C25.1608 65.3432 25.2671 65.3636 25.4305 65.3636H27.1837C27.339 65.3636 27.4411 65.3432 27.4902 65.3023C27.5392 65.2533 27.5637 65.147 27.5637 64.9836ZM24.131 60.141H28.4832C29.1288 60.141 29.4517 60.4639 29.4517 61.1095V65.1184C29.4517 65.7641 29.1288 66.0869 28.4832 66.0869H24.131C23.4854 66.0869 23.1625 65.7641 23.1625 65.1184V61.1095C23.1625 60.4639 23.4854 60.141 24.131 60.141ZM35.4645 60.141H37.3525V66.0869H35.4645V65.6823C35.3664 65.9521 35.1335 66.0869 34.7657 66.0869H32.0686C31.4229 66.0869 31.1001 65.7641 31.1001 65.1184V60.141H32.9881V64.9836C32.9881 65.147 33.0085 65.2533 33.0494 65.3023C33.0984 65.3432 33.2047 65.3636 33.3681 65.3636H35.0232C35.3174 65.3636 35.4645 65.2328 35.4645 64.9713V60.141ZM41.7704 60.141H44.4675C45.1132 60.141 45.436 60.4639 45.436 61.1095V66.0869H43.5358V61.2444C43.5358 61.0891 43.5113 60.9869 43.4622 60.9379C43.4132 60.8889 43.311 60.8643 43.1557 60.8643H41.513C41.2269 60.8643 41.0839 60.9951 41.0839 61.2567V61.6244H41.0716V66.0869H39.1714V60.141H41.0716V60.5456C41.1697 60.2759 41.4026 60.141 41.7704 60.141ZM49.3391 65.3636H50.9941C51.2883 65.3636 51.4354 65.2328 51.4354 64.9713V61.2567C51.4354 60.9951 51.2883 60.8643 50.9941 60.8643H49.3391C49.1756 60.8643 49.0693 60.8889 49.0203 60.9379C48.9794 60.9869 48.959 61.0891 48.959 61.2444V64.9836C48.959 65.147 48.9794 65.2533 49.0203 65.3023C49.0693 65.3432 49.1756 65.3636 49.3391 65.3636ZM51.4354 57.8853H53.3234V66.0869H51.4354V65.6823C51.3374 65.9521 51.1044 66.0869 50.7366 66.0869H48.0395C47.3939 66.0869 47.071 65.7641 47.071 65.1184V61.1095C47.071 60.4639 47.3939 60.141 48.0395 60.141H50.7366C51.1044 60.141 51.3374 60.2759 51.4354 60.5456V57.8853ZM60.4926 58.4615V64.9836C60.4926 65.147 60.5171 65.2533 60.5661 65.3023C60.6152 65.3432 60.7173 65.3636 60.8726 65.3636H62.9812C63.1365 65.3636 63.2387 65.3432 63.2877 65.3023C63.3368 65.2533 63.3613 65.147 63.3613 64.9836V58.4615H65.3351V65.1184C65.3351 65.7641 65.0122 66.0869 64.3666 66.0869H59.475C58.8293 66.0869 58.5065 65.7641 58.5065 65.1184V58.4615H60.4926Z" fill="black"/>
</svg>
