<svg width="14" height="14" viewBox="0 0 14 14" fill="none" xmlns="http://www.w3.org/2000/svg">
<path d="M6.99935 12.8337C8.61017 12.8337 10.0685 12.1807 11.1241 11.1251C12.1798 10.0695 12.8327 8.61114 12.8327 7.00033C12.8327 5.38951 12.1798 3.93118 11.1241 2.87553C10.0685 1.81991 8.61017 1.16699 6.99935 1.16699C5.38853 1.16699 3.9302 1.81991 2.87456 2.87553C1.81893 3.93118 1.16602 5.38951 1.16602 7.00033C1.16602 8.61114 1.81893 10.0695 2.87456 11.1251C3.9302 12.1807 5.38853 12.8337 6.99935 12.8337Z" stroke="#E5062E" stroke-linejoin="round"/>
<path fill-rule="evenodd" clip-rule="evenodd" d="M7.00065 10.7913C7.40335 10.7913 7.72982 10.4649 7.72982 10.0622C7.72982 9.65947 7.40335 9.33301 7.00065 9.33301C6.59795 9.33301 6.27148 9.65947 6.27148 10.0622C6.27148 10.4649 6.59795 10.7913 7.00065 10.7913Z" fill="#E5062E"/>
<path d="M7 3.5V8.16667" stroke="#E5062E" stroke-linecap="round" stroke-linejoin="round"/>
</svg>
