<svg width="34" height="34" viewBox="0 0 34 34" fill="none" xmlns="http://www.w3.org/2000/svg">
<path d="M31.4 3.7002H2.6C1.71634 3.7002 1 4.41654 1 5.3002V30.9002C1 31.7838 1.71634 32.5002 2.6 32.5002H31.4C32.2837 32.5002 33 31.7838 33 30.9002V5.3002C33 4.41654 32.2837 3.7002 31.4 3.7002Z" stroke="white" stroke-width="2" stroke-linecap="round" stroke-linejoin="round"/>
<path d="M1 13.2998H33" stroke="white" stroke-linecap="round" stroke-linejoin="round"/>
<path d="M1 22.9004H33" stroke="white" stroke-linecap="round" stroke-linejoin="round"/>
<path d="M11.4004 0.5V6.9" stroke="white" stroke-linecap="round" stroke-linejoin="round"/>
<path d="M22.5996 0.5V6.9" stroke="white" stroke-linecap="round" stroke-linejoin="round"/>
<path d="M11.4004 13.2998V32.4998" stroke="white" stroke-linecap="round" stroke-linejoin="round"/>
<path d="M22.5996 13.2998V32.4998" stroke="white" stroke-linecap="round" stroke-linejoin="round"/>
<path d="M33 7.7002V28.5002" stroke="white" stroke-linecap="round" stroke-linejoin="round"/>
<path d="M1 7.7002V28.5002" stroke="white" stroke-linecap="round" stroke-linejoin="round"/>
<path d="M9 32.5H25" stroke="white" stroke-linecap="round" stroke-linejoin="round"/>
<rect width="6.4" height="6.4" transform="translate(2.59961 14.9004)" fill="#07689F"/>
<rect width="6.4" height="6.4" transform="translate(13.8008 14.9004)" fill="#07689F"/>
<rect width="6.4" height="6.4" transform="translate(25 14.9004)" fill="#07689F"/>
<rect width="6.4" height="6.4" transform="translate(2.59961 24.5)" fill="#07689F"/>
</svg>
