<svg width="70" height="108" viewBox="0 0 70 108" fill="none" xmlns="http://www.w3.org/2000/svg">
<path d="M29.2279 64.2103C28.9974 64.2409 28.7098 64.2523 28.7098 64.2523C28.7098 64.2523 28.2278 63.7859 28.1173 63.6305L20.2573 55.2626L33.7336 47.2662C34.0961 47.0501 34.1201 46.6678 33.787 46.4096L30.9933 44.2432C30.6589 43.9839 30.0719 43.8999 29.6775 44.0499L14.7785 49.8348L6.47127 41.9844C4.93635 40.5383 2.83237 39.5676 1.77288 39.8162C1.36829 39.9098 0.98711 40.1331 0.659958 40.429L0.651554 40.4375C0.355616 40.7652 0.132312 41.1464 0.0386681 41.551C-0.209247 42.6099 0.760805 44.7138 2.20688 46.2482L10.0567 54.5554L4.27184 69.4544C4.12177 69.8488 4.20521 70.4364 4.46453 70.7708L6.63154 73.5645C6.89026 73.8964 7.27204 73.873 7.48874 73.5099L15.4851 60.0348L23.853 67.8948C24.0072 68.0053 24.4755 68.4867 24.4755 68.4867C24.4755 68.4867 24.4622 68.7749 24.4322 69.0048L24.0505 71.9888L26.2841 74.8797C26.3147 74.8401 26.3465 74.7975 26.3705 74.747L28.1137 71.5067C28.3184 71.0853 28.148 70.8026 27.9907 70.6573C28.1768 70.7486 28.5273 70.8956 29.1528 71.1039C29.1528 71.1039 31.1091 71.8933 31.6092 71.3939L31.617 71.3855C32.1236 70.8794 31.3264 68.9303 31.3264 68.9303C31.1194 68.3048 30.9717 67.9543 30.8798 67.7682C31.0251 67.9249 31.3072 68.0953 31.7292 67.89L34.9695 66.1474C35.0206 66.1228 35.0614 66.0916 35.1016 66.061L32.2107 63.8268L29.2279 64.2103Z" fill="black"/>
<path d="M67.0047 28.6315L59.1566 20.3243L64.9415 5.42533C65.0916 5.03094 65.0076 4.44327 64.7488 4.10891L62.5818 1.31521C62.3231 0.982658 61.9419 1.00607 61.7258 1.36864L53.7271 14.8455L45.3592 6.98545C45.2055 6.875 44.7373 6.39358 44.7373 6.39358C44.7373 6.39358 44.7499 6.10484 44.7799 5.87494L45.1623 2.89155L42.9287 0C42.8969 0.0396185 42.8657 0.081638 42.841 0.132062L41.0984 3.37297C40.8943 3.79437 41.063 4.0771 41.2209 4.22237C41.0354 4.13112 40.6842 3.98346 40.0587 3.77576C40.0587 3.77576 38.1018 2.98579 37.6024 3.48522L37.5946 3.49363C37.088 3.99966 37.8851 5.94877 37.8851 5.94877C38.0922 6.57426 38.2405 6.92483 38.3323 7.11091C38.1865 6.95424 37.9031 6.78376 37.4817 6.98846L34.2408 8.73167C34.1898 8.75628 34.149 8.78749 34.1094 8.81811L37.0009 11.0517L39.9843 10.67C40.2142 10.64 40.5018 10.628 40.5018 10.628C40.5018 10.628 40.985 11.095 41.0936 11.2498L48.9537 19.6177L35.4792 27.6141C35.116 27.8302 35.092 28.2125 35.4252 28.4707L38.2177 30.6371C38.5532 30.8964 39.1403 30.9804 39.5335 30.8304L54.4324 25.0455L62.7409 32.8953C64.2752 34.3414 66.3798 35.3121 67.4381 35.0635C67.8427 34.9699 68.2245 34.746 68.551 34.4506L68.56 34.4422C68.856 34.1145 69.0787 33.7333 69.1729 33.3287C69.4208 32.271 68.4514 30.1665 67.0047 28.6315Z" fill="black"/>
<path d="M52.3678 39.8508H54.5498C53.6746 49.5537 45.8601 57.2799 36.1218 58.0218V55.9095L31.7266 60.3053L36.1218 64.7018V62.2904C48.2102 61.5323 57.9246 51.9014 58.8196 39.8502H61.1607L56.7654 35.4531L52.3678 39.8508Z" fill="black"/>
<path d="M16.8437 35.0303H14.6617C15.5363 25.3274 23.3507 17.6006 33.0902 16.8592V18.9716L37.4861 14.5752L33.0902 10.1787V12.59C21.0012 13.3476 11.2869 22.9785 10.3925 35.0303H8.05078L12.4472 39.4267L16.8437 35.0303Z" fill="black"/>
<path d="M7.80336 92.5869C9.0389 92.5869 10.2241 92.3714 11.3591 91.9404L11.9625 93.8583C11.0143 94.16 10.0446 94.3109 9.05326 94.3109C8.06196 94.3109 7.17841 94.2031 6.40262 93.9876C5.64118 93.7721 5.05215 93.492 4.63552 93.1472C4.43438 92.1559 4.341 91.179 4.35537 90.2164C4.35537 88.2482 4.72172 86.4667 5.45442 84.872C6.20148 83.2629 7.0563 82.1423 8.01886 81.5102L11.4238 83.6652C9.80033 84.6996 8.50733 86.0213 7.54476 87.6304C6.59657 89.2395 6.12247 90.8485 6.12247 92.4576C6.6253 92.5438 7.1856 92.5869 7.80336 92.5869ZM14.096 94.1385L13.2124 85.3892L16.9837 84.8289L15.8415 93.9876L14.096 94.1385ZM13.7512 83.4497C13.4351 83.1193 13.2771 82.7314 13.2771 82.286C13.2771 81.8263 13.4351 81.4384 13.7512 81.1223C14.0816 80.8062 14.4695 80.6482 14.9149 80.6482C15.3602 80.6482 15.7409 80.8062 16.057 81.1223C16.3874 81.4384 16.5527 81.8263 16.5527 82.286C16.5527 82.7314 16.3874 83.1193 16.057 83.4497C15.7409 83.7658 15.3602 83.9238 14.9149 83.9238C14.4695 83.9238 14.0816 83.7658 13.7512 83.4497ZM24.9571 88.0614C24.1526 88.0614 23.542 88.3415 23.1254 88.9018C22.7231 89.4621 22.4214 90.4894 22.2203 91.9835L21.9833 93.9876L20.2377 94.1385L19.3542 85.3892L23.1254 84.8073L22.7591 87.6304H22.8883C23.8365 85.6047 25.0362 84.5272 26.4872 84.3979L25.9915 88.1476C25.5605 88.0901 25.2157 88.0614 24.9571 88.0614ZM30.4739 92.7593C31.5945 92.7593 32.6577 92.5725 33.6633 92.199L34.2021 93.9014C33.3688 94.1744 32.4996 94.3109 31.5945 94.3109C30.6894 94.3109 29.8849 94.2103 29.1809 94.0092C28.4913 93.8224 27.9741 93.571 27.6293 93.2549C27.4569 92.4073 27.3636 91.6243 27.3492 90.906C27.3492 89.4406 27.6796 88.1045 28.3405 86.8977C29.0157 85.6909 29.7843 84.8433 30.6463 84.3548L33.7064 86.3589C32.2267 87.1635 31.0558 88.1189 30.1938 89.2251C29.3462 90.317 28.9223 91.4591 28.9223 92.6515C29.4252 92.7234 29.9424 92.7593 30.4739 92.7593ZM38.7491 84.3548C41.5937 85.4898 43.016 86.9121 43.016 88.6217C43.016 89.5124 42.7646 90.1517 42.2618 90.5396C41.7589 90.9275 40.9544 91.1215 39.8482 91.1215C38.7563 91.1215 37.9302 91.0568 37.3699 90.9275C37.1544 91.4735 37.0395 92.0481 37.0251 92.6515C37.5567 92.7234 38.2966 92.7593 39.2448 92.7593C40.193 92.7593 41.213 92.5725 42.3049 92.199L42.8221 93.9014C41.9601 94.1744 40.9975 94.3109 39.9344 94.3109C38.0236 94.3109 36.6229 93.9589 35.7321 93.2549C35.5454 92.4217 35.452 91.6387 35.452 90.906C35.452 89.4262 35.7752 88.0901 36.4217 86.8977C37.0826 85.6909 37.8584 84.8433 38.7491 84.3548ZM37.7147 90.1086C37.8584 90.123 38.2391 90.1302 38.8569 90.1302C39.489 90.1302 40.2073 90.044 41.0119 89.8716C41.0406 89.6561 41.0622 89.4334 41.0765 89.2035C41.0765 88.4996 40.8754 87.8243 40.4731 87.1778C39.2951 87.9536 38.3756 88.9306 37.7147 90.1086ZM46.0977 94.1385L45.2141 81.8334L48.9854 81.2516L47.8432 93.9876L46.0977 94.1385ZM62.2386 94.0738C61.9225 94.1026 61.4556 94.1169 60.8379 94.1169C60.2345 94.1169 59.5449 94.0164 58.7691 93.8152C58.0076 93.5997 57.4186 93.3196 57.002 92.9748C56.8008 92.0266 56.7074 91.0497 56.7218 90.044C56.7218 88.3056 57.0163 86.6822 57.6054 85.1737C58.2088 83.6508 59.1354 82.4297 60.3853 81.5102L63.7902 83.6652C62.1668 84.6996 60.8738 86.0213 59.9112 87.6304C58.963 89.2395 58.4889 90.8485 58.4889 92.4576C59.1354 92.5869 59.7747 92.6515 60.4069 92.6515C61.039 92.6515 61.6065 92.5941 62.1093 92.4791L61.7645 88.6217L65.1048 88.4062L64.0488 94.6126L62.3248 94.7634L62.2386 94.0738Z" fill="black"/>
</svg>
