<svg width="32" height="32" viewBox="0 0 32 32" fill="none" xmlns="http://www.w3.org/2000/svg">
<path d="M2.66797 28H29.3346" stroke="black" stroke-width="2" stroke-linecap="round" stroke-linejoin="round"/>
<path d="M11.9987 14.667H6.66536C5.92898 14.667 5.33203 15.2639 5.33203 16.0003V26.667C5.33203 27.4034 5.92898 28.0003 6.66536 28.0003H11.9987C12.7351 28.0003 13.332 27.4034 13.332 26.667V16.0003C13.332 15.2639 12.7351 14.667 11.9987 14.667Z" stroke="black" stroke-width="2" stroke-linejoin="round"/>
<path d="M25.332 2.66699H14.6654C13.929 2.66699 13.332 3.26395 13.332 4.00033V26.667C13.332 27.4034 13.929 28.0003 14.6654 28.0003H25.332C26.0684 28.0003 26.6654 27.4034 26.6654 26.667V4.00033C26.6654 3.26395 26.0684 2.66699 25.332 2.66699Z" stroke="black" stroke-width="2" stroke-linejoin="round"/>
<path d="M18.668 21.3389H21.3346" stroke="black" stroke-width="2" stroke-linecap="round" stroke-linejoin="round"/>
<path d="M8 21.3389H10.6667" stroke="black" stroke-width="2" stroke-linecap="round" stroke-linejoin="round"/>
<path d="M18.668 15.3389H21.3346" stroke="black" stroke-width="2" stroke-linecap="round" stroke-linejoin="round"/>
<path d="M18.668 9.33887H21.3346" stroke="black" stroke-width="2" stroke-linecap="round" stroke-linejoin="round"/>
</svg>
