<svg width="16" height="16" viewBox="0 0 16 16" fill="none" xmlns="http://www.w3.org/2000/svg">
<path d="M4.66699 8.3335C4.66699 9.00016 5.02413 10.6668 9.66699 10.6668C14.3099 10.6668 14.667 9.00016 14.667 8.3335C14.667 7.66683 14.667 3.3335 14.667 3.3335H9.66699H4.66699C4.66699 3.3335 4.66699 7.66683 4.66699 8.3335Z" stroke="#565656" stroke-linejoin="round"/>
<path d="M9.66699 5.3335H7.66699V7.00016L8.66699 8.00016L9.66699 7.00016V5.3335Z" stroke="#565656" stroke-linecap="round" stroke-linejoin="round"/>
<path d="M8.66699 5.3335V3.3335" stroke="#565656" stroke-linecap="round" stroke-linejoin="round"/>
<path d="M5 13.3335H14.3333" stroke="#565656" stroke-linecap="round" stroke-linejoin="round"/>
<path d="M4.66634 4.6665H1.33301C1.33301 4.6665 1.66634 6.33317 1.99937 7.33317C2.33241 8.33317 4.66634 7.99984 4.66634 7.99984" stroke="#565656" stroke-linejoin="round"/>
</svg>
