<svg width="20" height="20" viewBox="0 0 20 20" fill="none" xmlns="http://www.w3.org/2000/svg">
<path d="M1.74538 9.23904C1.70305 8.75212 2.08686 8.3335 2.57558 8.3335H4.16664C4.62689 8.3335 4.99997 8.70658 4.99997 9.16683V17.0835C4.99997 17.5437 4.62689 17.9168 4.16664 17.9168H3.26399C2.83173 17.9168 2.47123 17.5863 2.43379 17.1557L1.74538 9.23904Z" stroke="white" stroke-linecap="round" stroke-linejoin="round"/>
<path d="M7.5 8.9062C7.5 8.558 7.71642 8.24633 8.03137 8.09787C8.71825 7.77408 9.88871 7.12258 10.4167 6.24204C11.0971 5.1072 11.2255 3.05681 11.2463 2.58715C11.2492 2.52141 11.2474 2.45558 11.2564 2.3904C11.3692 1.57702 12.9393 2.52721 13.5417 3.53188C13.8686 4.07713 13.9105 4.7935 13.8761 5.35279C13.8393 5.9512 13.6639 6.52929 13.4917 7.10362L13.125 8.32704H17.6487C18.2013 8.32704 18.6009 8.85508 18.4507 9.38687L16.213 17.31C16.1117 17.669 15.7841 17.9168 15.4111 17.9168H8.33333C7.87308 17.9168 7.5 17.5437 7.5 17.0835V8.9062Z" stroke="white" stroke-linecap="round" stroke-linejoin="round"/>
</svg>
