<svg width="20" height="20" viewBox="0 0 20 20" fill="none" xmlns="http://www.w3.org/2000/svg">
<path d="M6.8763 7.76069C6.8763 6.0348 8.27542 4.63569 10.0013 4.63569C11.7272 4.63569 13.1263 6.0348 13.1263 7.76069C13.1263 9.27254 12.0527 10.5336 10.6263 10.8232V11.9274C10.6263 12.2725 10.3465 12.5524 10.0013 12.5524C9.65612 12.5524 9.3763 12.2725 9.3763 11.9274V10.2607C9.3763 9.91551 9.65612 9.63569 10.0013 9.63569C11.0368 9.63569 11.8763 8.79622 11.8763 7.76069C11.8763 6.72516 11.0368 5.88569 10.0013 5.88569C8.96577 5.88569 8.1263 6.72516 8.1263 7.76069C8.1263 8.10587 7.84648 8.38569 7.5013 8.38569C7.15612 8.38569 6.8763 8.10587 6.8763 7.76069Z" fill="#0C0C0C"/>
<path d="M11.043 14.6357C11.043 15.211 10.5766 15.6774 10.0013 15.6774C9.42601 15.6774 8.95964 15.211 8.95964 14.6357C8.95964 14.0604 9.42601 13.594 10.0013 13.594C10.5766 13.594 11.043 14.0604 11.043 14.6357Z" fill="#0C0C0C"/>
<path d="M3.66681 3.66582C5.28728 2.04537 7.52772 1.04199 10.0013 1.04199C12.4749 1.04199 14.7153 2.04537 16.3358 3.66582C17.9562 5.2863 18.9596 7.52674 18.9596 10.0003C18.9596 12.4739 17.9562 14.7144 16.3358 16.3348C14.7153 17.9553 12.4749 18.9587 10.0013 18.9587C7.52772 18.9587 5.28728 17.9553 3.6668 16.3348C2.04635 14.7144 1.04297 12.4739 1.04297 10.0003C1.04297 7.52674 2.04636 5.28629 3.66681 3.66582ZM10.0013 2.29199C7.87255 2.29199 5.94632 3.15409 4.55068 4.54971C3.15506 5.94536 2.29297 7.87158 2.29297 10.0003C2.29297 12.1291 3.15507 14.0553 4.55069 15.4509C5.94633 16.8466 7.87255 17.7087 10.0013 17.7087C12.13 17.7087 14.0563 16.8466 15.4519 15.4509C16.8475 14.0553 17.7096 12.1291 17.7096 10.0003C17.7096 7.87158 16.8475 5.94535 15.4519 4.54971C14.0563 3.15409 12.1301 2.29199 10.0013 2.29199Z" fill="#0C0C0C"/>
<path d="M10.001 1.54199C12.3366 1.54199 14.4519 2.489 15.9824 4.01953C17.5128 5.55 18.4599 7.66459 18.46 10C18.46 12.3356 17.513 14.4509 15.9824 15.9814C14.4519 17.512 12.3366 18.459 10.001 18.459C7.66556 18.4589 5.55098 17.5118 4.02051 15.9814C2.48997 14.4509 1.54297 12.3356 1.54297 10C1.54306 7.66451 2.49005 5.55002 4.02051 4.01953C5.55099 2.48907 7.66548 1.54208 10.001 1.54199ZM10.001 1.79199C7.73445 1.79208 5.68279 2.71079 4.19727 4.19629C2.71177 5.68181 1.79306 7.73347 1.79297 10C1.79297 12.2667 2.7117 14.3191 4.19727 15.8047C5.68277 17.2901 7.73453 18.2089 10.001 18.209C12.2676 18.209 14.3201 17.2903 15.8057 15.8047C17.2912 14.3191 18.21 12.2667 18.21 10C18.2099 7.73356 17.2911 5.6818 15.8057 4.19629C14.3201 2.71072 12.2676 1.79199 10.001 1.79199ZM10.001 14.0938C10.3001 14.0938 10.543 14.3366 10.543 14.6357C10.5429 14.9349 10.3001 15.1777 10.001 15.1777C9.70199 15.1776 9.45999 14.9348 9.45996 14.6357C9.45996 14.3367 9.70198 14.0939 10.001 14.0938ZM10.001 5.13574C11.4507 5.13574 12.626 6.311 12.626 7.76074C12.626 9.03009 11.7243 10.0898 10.5264 10.333L10.126 10.4141V11.9277C10.1258 11.9966 10.0699 12.0527 10.001 12.0527C9.93222 12.0526 9.87618 11.9965 9.87598 11.9277V10.2607C9.87598 10.1918 9.93209 10.1359 10.001 10.1357C11.3126 10.1357 12.3759 9.07239 12.376 7.76074C12.376 6.44907 11.3126 5.38574 10.001 5.38574C8.68945 5.38592 7.62598 6.44918 7.62598 7.76074C7.62595 7.82975 7.56999 7.88574 7.50098 7.88574C7.43211 7.88557 7.376 7.82965 7.37598 7.76074C7.37598 6.31111 8.55138 5.13592 10.001 5.13574Z" stroke="black"/>
</svg>
