<svg width="20" height="20" viewBox="0 0 20 20" fill="none" xmlns="http://www.w3.org/2000/svg">
<path d="M10.0013 18.3337C12.3025 18.3337 14.3858 17.4009 15.8938 15.8929C17.4019 14.3848 18.3346 12.3015 18.3346 10.0003C18.3346 7.69916 17.4019 5.61583 15.8938 4.10777C14.3858 2.59973 12.3025 1.66699 10.0013 1.66699C7.70014 1.66699 5.6168 2.59973 4.10874 4.10777C2.60071 5.61583 1.66797 7.69916 1.66797 10.0003C1.66797 12.3015 2.60071 14.3848 4.10874 15.8929C5.6168 17.4009 7.70014 18.3337 10.0013 18.3337Z" stroke="black" stroke-linejoin="round"/>
<path d="M10 11.9274V10.2607C11.3807 10.2607 12.5 9.14145 12.5 7.76074C12.5 6.38003 11.3807 5.26074 10 5.26074C8.61929 5.26074 7.5 6.38003 7.5 7.76074" stroke="black" stroke-linecap="round" stroke-linejoin="round"/>
<path fill-rule="evenodd" clip-rule="evenodd" d="M9.9987 15.6771C10.574 15.6771 11.0404 15.2107 11.0404 14.6354C11.0404 14.0601 10.574 13.5938 9.9987 13.5938C9.42341 13.5938 8.95703 14.0601 8.95703 14.6354C8.95703 15.2107 9.42341 15.6771 9.9987 15.6771Z" fill="black"/>
</svg>
