<svg width="20" height="20" viewBox="0 0 20 20" fill="none" xmlns="http://www.w3.org/2000/svg">
<path d="M18.46 16.25C18.46 17.0093 17.8442 17.6248 17.085 17.625H2.91797C2.15858 17.625 1.54297 17.0094 1.54297 16.25V6.9502C1.58406 6.95474 1.62567 6.95801 1.66797 6.95801H1.79297V16.25C1.79297 16.8713 2.29665 17.375 2.91797 17.375H17.085C17.7061 17.3748 18.21 16.8712 18.21 16.25V6.95801H18.335C18.3773 6.958 18.4189 6.95475 18.46 6.9502V16.25ZM5.00098 13.208H5.83496C5.90374 13.2082 5.95979 13.2642 5.95996 13.333C5.95996 13.4019 5.90385 13.4578 5.83496 13.458H5.00098C4.93209 13.4578 4.87598 13.4019 4.87598 13.333C4.87615 13.2642 4.9322 13.2082 5.00098 13.208ZM8.33496 13.208H15.001C15.0699 13.208 15.1258 13.2641 15.126 13.333C15.126 13.402 15.07 13.458 15.001 13.458H8.33496C8.26593 13.458 8.20996 13.402 8.20996 13.333C8.21014 13.2641 8.26603 13.208 8.33496 13.208ZM5.00098 9.875H5.83496C5.90385 9.87518 5.95996 9.93107 5.95996 10C5.95996 10.0689 5.90385 10.1248 5.83496 10.125H5.00098C4.93209 10.1248 4.87598 10.0689 4.87598 10C4.87598 9.93107 4.93209 9.87518 5.00098 9.875ZM8.33496 9.875H15.001C15.07 9.875 15.126 9.93096 15.126 10C15.126 10.069 15.07 10.125 15.001 10.125H8.33496C8.26593 10.125 8.20996 10.069 8.20996 10C8.20996 9.93096 8.26593 9.875 8.33496 9.875ZM1.66797 5.70801H1.79297V5.95801H1.66797C1.59893 5.95801 1.54297 5.90204 1.54297 5.83301C1.54314 5.76412 1.59904 5.70801 1.66797 5.70801ZM18.335 5.70801C18.4037 5.70818 18.4598 5.76423 18.46 5.83301C18.46 5.90193 18.4038 5.95783 18.335 5.95801H18.21V5.70801H18.335ZM17.21 5.70801V5.95801H2.79297V5.70801H17.21ZM2.91797 2.375H17.085C17.8442 2.37518 18.46 2.99072 18.46 3.75V4.71484C18.4189 4.7103 18.3772 4.70802 18.335 4.70801H18.21V3.75C18.21 3.12879 17.7061 2.62518 17.085 2.625H2.91797C2.29665 2.625 1.79297 3.12868 1.79297 3.75V4.70801H1.66797C1.62573 4.70801 1.584 4.71031 1.54297 4.71484V3.75C1.54297 2.99061 2.15858 2.375 2.91797 2.375Z" fill="#0C0C0C" stroke="#07689F" stroke-linecap="round" stroke-linejoin="round"/>
</svg>
