<svg width="16" height="17" viewBox="0 0 16 17" fill="none" xmlns="http://www.w3.org/2000/svg">
<path d="M12.3397 5.18262L12.2999 5.42771C11.7749 8.27587 9.99317 9.25624 7.71027 9.25624H6.54893C6.41451 9.25653 6.28459 9.30775 6.18253 9.4007C6.08046 9.49365 6.01295 9.62223 5.99213 9.76333L5.39555 13.7693L5.22851 14.9018C5.22153 14.9469 5.22394 14.9931 5.23557 15.0371C5.2472 15.0811 5.26777 15.1219 5.29583 15.1565C5.32389 15.1912 5.35875 15.2189 5.39797 15.2377C5.43719 15.2564 5.47981 15.2659 5.52282 15.2653H7.583C7.70111 15.2669 7.81586 15.2234 7.90637 15.1428C7.99687 15.0621 8.05713 14.9496 8.07617 14.8258V14.7159L8.45798 12.1044V11.9607C8.47529 11.8353 8.5348 11.7208 8.62548 11.6385C8.71615 11.5561 8.83186 11.5115 8.95115 11.5128H9.26137C11.2579 11.5128 12.817 10.6676 13.2385 8.13219C13.3611 7.70465 13.3875 7.25253 13.3156 6.81218C13.2438 6.37182 13.0757 5.95552 12.8249 5.59674C12.6849 5.43218 12.5211 5.29239 12.3397 5.18262Z" fill="#179BD7"/>
<path d="M11.7905 4.95443L11.5439 4.88682L11.2814 4.83611C10.9444 4.78219 10.604 4.75676 10.2632 4.76005H7.16105C7.04313 4.76074 6.92934 4.80631 6.84033 4.88849C6.75131 4.97066 6.69295 5.08401 6.67584 5.20798L6.01562 9.64502V9.77179C6.03645 9.63069 6.10396 9.50211 6.20602 9.40916C6.30809 9.31621 6.43801 9.26499 6.57243 9.2647H7.73377C10.0167 9.2647 11.7984 8.28432 12.3234 5.43617C12.3234 5.35165 12.3234 5.26714 12.3632 5.19108C12.2254 5.11358 12.0817 5.04856 11.9337 4.99669L11.7905 4.95443Z" fill="#222D65"/>
<path d="M6.66735 5.19912C6.68447 5.07515 6.74282 4.9618 6.83184 4.87962C6.92086 4.79745 7.03464 4.75188 7.15257 4.75119H10.2548C10.5982 4.74745 10.9413 4.77288 11.2809 4.82725L11.5434 4.87796L11.79 4.94557H11.9093C12.0573 4.99762 12.2009 5.06264 12.3388 5.13996C12.4394 4.72122 12.4435 4.28287 12.3507 3.86209C12.258 3.44131 12.0711 3.05051 11.8059 2.72283C11.2172 2.0129 10.1514 1.7002 8.79116 1.7002H4.81399C4.67956 1.70048 4.54964 1.7517 4.44758 1.84465C4.34552 1.9376 4.27801 2.06618 4.25718 2.20729L2.61858 13.3548C2.6118 13.4059 2.61534 13.458 2.62896 13.5075C2.64258 13.557 2.66597 13.6029 2.69758 13.6421C2.72918 13.6812 2.76828 13.7128 2.81226 13.7347C2.85624 13.7566 2.90411 13.7682 2.95267 13.7689H5.39465L6.00714 9.63615L6.66735 5.19912Z" fill="#253B80"/>
</svg>
