<svg width="32" height="32" viewBox="0 0 32 32" fill="none" xmlns="http://www.w3.org/2000/svg">
<path d="M11.3318 5.12402C11.8162 5.12402 12.2625 5.3867 12.4976 5.8102L14.1286 8.74807C14.3421 9.13274 14.3522 9.598 14.1554 9.99154L12.5842 13.134C12.5842 13.134 13.0395 15.4749 14.9451 17.3805C16.8507 19.2861 19.1838 19.7336 19.1838 19.7336L22.3258 18.1627C22.7196 17.9657 23.1852 17.9759 23.57 18.1899L26.5162 19.8279C26.9392 20.0631 27.2016 20.5091 27.2016 20.9932V24.3755C27.2016 26.098 25.6017 27.3421 23.9696 26.7913C20.6177 25.6603 15.4146 23.5069 12.1167 20.2089C8.81876 16.9111 6.6653 11.7079 5.53427 8.356C4.98359 6.72394 6.22765 5.12402 7.95009 5.12402H11.3318Z" stroke="black" stroke-width="2" stroke-linejoin="round"/>
</svg>
