<svg width="20" height="20" viewBox="0 0 20 20" fill="none" xmlns="http://www.w3.org/2000/svg">
<path d="M7.60627 1.3655C7.89242 1.28629 8.19481 1.41933 8.32974 1.68382C8.64062 2.29318 9.27305 2.70826 10.0013 2.70826C10.7296 2.70826 11.362 2.29318 11.6729 1.68382C11.8078 1.41933 12.1102 1.28629 12.3963 1.3655C13.8 1.75406 15.0645 2.47526 16.1 3.43804C16.3022 3.62606 16.3571 3.92449 16.235 4.17214C16.1122 4.42105 16.043 4.70151 16.043 4.99992C16.043 6.03545 16.8824 6.87492 17.918 6.87492L17.9441 6.87474C18.2204 6.87079 18.4665 7.04875 18.5493 7.31238C18.8161 8.16157 18.9596 9.06457 18.9596 9.99992C18.9596 10.6173 18.8971 11.2207 18.7778 11.8039C18.7136 12.1175 18.4229 12.332 18.1044 12.3007C18.0433 12.2947 17.9811 12.2916 17.918 12.2916C16.8824 12.2916 16.043 13.1311 16.043 14.1666C16.043 14.6275 16.2085 15.0482 16.484 15.3748C16.6905 15.6194 16.6787 15.9805 16.4567 16.2112C15.3994 17.3098 14.0634 18.1397 12.5614 18.5869C12.2352 18.684 11.8913 18.5024 11.7877 18.1782C11.5458 17.4216 10.8366 16.8749 10.0013 16.8749C9.166 16.8749 8.45676 17.4216 8.21487 18.1782C8.11126 18.5024 7.76736 18.684 7.44121 18.5869C5.93918 18.1397 4.60321 17.3098 3.54591 16.2112C3.32393 15.9805 3.31213 15.6194 3.51857 15.3748C3.79413 15.0482 3.95964 14.6275 3.95964 14.1666C3.95964 13.1311 3.12017 12.2916 2.08464 12.2916C2.0215 12.2916 1.95933 12.2947 1.89825 12.3007C1.57968 12.332 1.28896 12.1175 1.22481 11.8039C1.10551 11.2207 1.04297 10.6173 1.04297 9.99992C1.04297 9.06458 1.18653 8.16157 1.45327 7.31238C1.53608 7.04875 1.78217 6.87079 2.05847 6.87474L2.08464 6.87492C3.12017 6.87492 3.95964 6.03545 3.95964 4.99992C3.95964 4.70151 3.89038 4.42105 3.76765 4.17214C3.64555 3.92449 3.70042 3.62606 3.90263 3.43804C4.93806 2.47526 6.20258 1.75406 7.60627 1.3655ZM5.07027 4.07485C5.1609 4.36762 5.20964 4.67845 5.20964 4.99992C5.20964 6.57446 4.04514 7.87703 2.53041 8.09337C2.37545 8.70257 2.29297 9.34122 2.29297 9.99992C2.29297 10.3577 2.31731 10.7096 2.36436 11.0539C3.9592 11.1954 5.20964 12.535 5.20964 14.1666C5.20964 14.7224 5.06413 15.245 4.8094 15.6976C5.52335 16.3486 6.35965 16.8669 7.27932 17.2141C7.81552 16.2657 8.833 15.6249 10.0013 15.6249C11.1696 15.6249 12.1871 16.2657 12.7233 17.2141C13.643 16.8669 14.4793 16.3486 15.1932 15.6976C14.9385 15.245 14.793 14.7224 14.793 14.1666C14.793 12.535 16.0434 11.1954 17.6382 11.0539C17.6853 10.7096 17.7096 10.3577 17.7096 9.99992C17.7096 9.34123 17.6271 8.70258 17.4722 8.09337C15.9575 7.87703 14.793 6.57446 14.793 4.99992C14.793 4.67846 14.8417 4.36762 14.9323 4.07485C14.2194 3.48084 13.3981 3.01337 12.5028 2.70638C11.9333 3.46573 11.0252 3.95826 10.0013 3.95826C8.97741 3.95826 8.06929 3.46573 7.4998 2.70638C6.60448 3.01337 5.78316 3.48084 5.07027 4.07485Z" fill="#0C0C0C"/>
<path d="M6.45964 9.99992C6.45964 8.04391 8.04529 6.45826 10.0013 6.45826C11.9573 6.45826 13.543 8.04391 13.543 9.99992C13.543 11.9559 11.9573 13.5416 10.0013 13.5416C8.04529 13.5416 6.45964 11.9559 6.45964 9.99992ZM10.0013 7.70826C8.73565 7.70826 7.70964 8.73427 7.70964 9.99992C7.70964 11.2656 8.73565 12.2916 10.0013 12.2916C11.267 12.2916 12.293 11.2656 12.293 9.99992C12.293 8.73427 11.267 7.70826 10.0013 7.70826Z" fill="#0C0C0C"/>
</svg>
