<svg width="20" height="20" viewBox="0 0 20 20" fill="none" xmlns="http://www.w3.org/2000/svg">
<path d="M12.2627 1.84766C13.5873 2.21433 14.7817 2.89525 15.7598 3.80469C15.7999 3.84231 15.8105 3.9018 15.7861 3.95117C15.6303 4.26727 15.543 4.62333 15.543 5C15.543 6.31164 16.6063 7.375 17.918 7.375H17.9512C18.0063 7.37421 18.0556 7.40934 18.0723 7.46191C18.3239 8.26319 18.46 9.11606 18.46 10C18.46 10.5835 18.4007 11.1537 18.2881 11.7041C18.2751 11.7666 18.2169 11.809 18.1533 11.8027C18.076 11.7951 17.9974 11.792 17.918 11.792C16.6063 11.792 15.543 12.8553 15.543 14.167C15.5431 14.75 15.7528 15.2839 16.1016 15.6973C16.1428 15.7461 16.1408 15.8181 16.0967 15.8643C15.098 16.902 13.8363 17.6854 12.4189 18.1074C12.3538 18.1268 12.2845 18.091 12.2637 18.0264C11.9574 17.0682 11.0597 16.375 10.001 16.375C8.94242 16.3751 8.04454 17.0683 7.73828 18.0264C7.71739 18.0909 7.64906 18.1268 7.58398 18.1074C6.16655 17.6854 4.90502 16.9021 3.90625 15.8643C3.86199 15.8182 3.8593 15.7462 3.90039 15.6973C4.24918 15.2839 4.45986 14.7501 4.45996 14.167C4.45996 12.8554 3.39649 11.7922 2.08496 11.792C2.00562 11.792 1.92687 11.7952 1.84961 11.8027C1.78603 11.809 1.72784 11.7666 1.71484 11.7041C1.60226 11.1537 1.54297 10.5835 1.54297 10C1.54297 9.11606 1.67898 8.26319 1.93066 7.46191C1.94734 7.4094 1.99663 7.37421 2.05176 7.375H2.08496C3.39646 7.37482 4.45992 6.31153 4.45996 5C4.45996 4.62323 4.3717 4.26733 4.21582 3.95117C4.19144 3.90173 4.20289 3.8423 4.24316 3.80469C5.22111 2.89536 6.41483 2.21436 7.73926 1.84766C7.79649 1.83181 7.85778 1.85823 7.88477 1.91113C8.27785 2.68142 9.0781 3.20788 10.001 3.20801C10.924 3.20801 11.7251 2.68158 12.1182 1.91113C12.1451 1.85829 12.2055 1.83191 12.2627 1.84766ZM12.665 2.2334C12.46 2.16308 12.2326 2.23281 12.1025 2.40625C11.6233 3.04523 10.8606 3.45801 10.001 3.45801C9.14142 3.4579 8.37859 3.04517 7.89941 2.40625C7.78551 2.25459 7.59765 2.18238 7.41504 2.21387L7.33789 2.2334C6.38396 2.56049 5.50883 3.05814 4.75 3.69043C4.59489 3.81968 4.53307 4.02978 4.59277 4.22266C4.66876 4.46814 4.70996 4.72929 4.70996 5C4.70992 6.32208 3.73175 7.41689 2.45996 7.59863C2.28432 7.62372 2.13671 7.73915 2.06934 7.89941L2.0459 7.96973C1.88078 8.61889 1.79297 9.2994 1.79297 10C1.79297 10.3805 1.81904 10.7554 1.86914 11.1221C1.90091 11.353 2.08808 11.5312 2.32031 11.5518C3.6594 11.6706 4.70996 12.7967 4.70996 14.167C4.70989 14.6342 4.58761 15.0726 4.37402 15.4521C4.25981 15.6551 4.30059 15.9105 4.47266 16.0674C5.23244 16.7601 6.12292 17.3118 7.10254 17.6816C7.33325 17.7687 7.59347 17.6746 7.71484 17.46C8.166 16.6622 9.02052 16.1251 10.001 16.125C10.9816 16.125 11.8369 16.6621 12.2881 17.46C12.4094 17.6745 12.6688 17.7685 12.8994 17.6816C13.8792 17.3118 14.7704 16.7603 15.5303 16.0674C15.7023 15.9105 15.7431 15.6551 15.6289 15.4521C15.4153 15.0725 15.293 14.6343 15.293 14.167C15.293 12.7967 16.3435 11.6706 17.6826 11.5518C17.9148 11.5311 18.102 11.353 18.1338 11.1221C18.1839 10.7554 18.21 10.3805 18.21 10C18.21 9.2994 18.1221 8.61889 17.957 7.96973C17.9133 7.79809 17.7824 7.66418 17.6162 7.61426L17.543 7.59863L17.3076 7.55371C16.1524 7.27879 15.293 6.23937 15.293 5C15.293 4.72929 15.3342 4.46815 15.4102 4.22266C15.4698 4.02981 15.407 3.81966 15.252 3.69043C14.4932 3.05831 13.6188 2.56043 12.665 2.2334ZM10.001 6.95801C11.6808 6.95801 13.043 8.32013 13.043 10C13.0429 11.6798 11.6808 13.042 10.001 13.042C8.32128 13.0418 6.96 11.6797 6.95996 10C6.95996 8.32024 8.32126 6.95818 10.001 6.95801ZM10.001 7.20801C8.45933 7.20818 7.20996 8.45831 7.20996 10C7.21 11.5417 8.45935 12.7918 10.001 12.792C11.5427 12.792 12.7929 11.5418 12.793 10C12.793 8.4582 11.5428 7.20801 10.001 7.20801Z" fill="#0C0C0C" stroke="#07689F" stroke-linejoin="round"/>
</svg>
