<svg width="16" height="16" viewBox="0 0 16 16" fill="none" xmlns="http://www.w3.org/2000/svg">
<path d="M7.65738 12.3337C9.94805 12.3337 11.805 10.3936 11.805 8.00033C11.805 5.60709 9.94805 3.66699 7.65738 3.66699C5.36672 3.66699 3.50977 5.60709 3.50977 8.00033C3.50977 10.3936 5.36672 12.3337 7.65738 12.3337Z" stroke="white" stroke-width="2" stroke-linejoin="round"/>
<path d="M7.65699 1.99967C8.0975 1.99967 8.45461 1.62658 8.45461 1.16634C8.45461 0.706104 8.0975 0.333008 7.65699 0.333008C7.21648 0.333008 6.85938 0.706104 6.85938 1.16634C6.85938 1.62658 7.21648 1.99967 7.65699 1.99967Z" fill="white"/>
<path d="M12.282 4.00065C12.7225 4.00065 13.0796 3.62755 13.0796 3.16732C13.0796 2.70708 12.7225 2.33398 12.282 2.33398C11.8415 2.33398 11.4844 2.70708 11.4844 3.16732C11.4844 3.62755 11.8415 4.00065 12.282 4.00065Z" fill="white"/>
<path d="M14.198 8.83268C14.6385 8.83268 14.9956 8.45958 14.9956 7.99935C14.9956 7.53912 14.6385 7.16602 14.198 7.16602C13.7575 7.16602 13.4004 7.53912 13.4004 7.99935C13.4004 8.45958 13.7575 8.83268 14.198 8.83268Z" fill="white"/>
<path d="M12.282 13.6667C12.7225 13.6667 13.0796 13.2936 13.0796 12.8333C13.0796 12.3731 12.7225 12 12.282 12C11.8415 12 11.4844 12.3731 11.4844 12.8333C11.4844 13.2936 11.8415 13.6667 12.282 13.6667Z" fill="white"/>
<path d="M7.65699 15.6667C8.0975 15.6667 8.45461 15.2936 8.45461 14.8333C8.45461 14.3731 8.0975 14 7.65699 14C7.21648 14 6.85938 14.3731 6.85938 14.8333C6.85938 15.2936 7.21648 15.6667 7.65699 15.6667Z" fill="white"/>
<path d="M3.03004 13.6667C3.47055 13.6667 3.82766 13.2936 3.82766 12.8333C3.82766 12.3731 3.47055 12 3.03004 12C2.58953 12 2.23242 12.3731 2.23242 12.8333C2.23242 13.2936 2.58953 13.6667 3.03004 13.6667Z" fill="white"/>
<path d="M1.11793 8.83268C1.55844 8.83268 1.91555 8.45958 1.91555 7.99935C1.91555 7.53912 1.55844 7.16602 1.11793 7.16602C0.677419 7.16602 0.320312 7.53912 0.320312 7.99935C0.320312 8.45958 0.677419 8.83268 1.11793 8.83268Z" fill="white"/>
<path d="M3.03004 3.99967C3.47055 3.99967 3.82766 3.62657 3.82766 3.16634C3.82766 2.7061 3.47055 2.33301 3.03004 2.33301C2.58953 2.33301 2.23242 2.7061 2.23242 3.16634C2.23242 3.62657 2.58953 3.99967 3.03004 3.99967Z" fill="white"/>
</svg>
