<svg width="75" height="85" viewBox="0 0 75 85" fill="none" xmlns="http://www.w3.org/2000/svg">
<g clip-path="url(#clip0_3366_55304)">
<path d="M4.6761 51.7915H70.1962C72.7702 51.7915 74.8762 49.6855 74.8762 47.1115V7.33137C74.8762 4.75733 72.7702 2.65137 70.1962 2.65137H4.6761C2.10206 2.65137 -0.00390625 4.75733 -0.00390625 7.33137V47.1115C-0.00390625 49.6854 2.10206 51.7915 4.6761 51.7915ZM4.6761 7.33137H70.1962V47.1115H4.6761V7.33137Z" fill="url(#paint0_linear_3366_55304)"/>
<path d="M18.5273 24.0444H21.1255V31.7705H22.7914V24.0444H25.4171V22.6504H18.5273V24.0444Z" fill="black"/>
<path d="M29.8854 27.5361V27.495C30.7378 27.1842 31.5354 26.3845 31.5354 25.2075C31.5354 24.4374 31.252 23.7999 30.7516 23.3816C30.1414 22.8674 29.2479 22.6504 27.9362 22.6504C26.9743 22.6504 26.0418 22.7326 25.418 22.84V31.8389H27.0701V28.0913H27.9087C28.8571 28.1165 29.289 28.4958 29.5472 29.6864C29.8032 30.8244 30.0202 31.5694 30.1551 31.8389H31.8735C31.6839 31.487 31.4417 30.4313 31.1559 29.2956C30.9275 28.4159 30.5344 27.7783 29.8854 27.5361ZM28.0574 26.8735H27.0702V23.9895C27.2325 23.9507 27.5707 23.9096 28.0985 23.9096C29.1817 23.9096 29.8856 24.369 29.8856 25.3698C29.8854 26.277 29.1817 26.8735 28.0574 26.8735Z" fill="black"/>
<path d="M34.7939 22.6504L31.8711 31.7705H33.5895L34.3756 29.1859H37.271L38.0959 31.7705H39.883L36.9191 22.6504H34.7939ZM34.6453 27.9268L35.3492 25.6806C35.5115 25.139 35.6486 24.5038 35.7833 23.9759H35.8109C35.9456 24.5038 36.0942 25.1254 36.2702 25.6806L36.9877 27.9268H34.6453Z" fill="black"/>
<path d="M43.7285 27.7234H40.2917V26.3706H43.7285V24.0169H40.0883V22.6504H45.3945V31.7705H39.8849V30.404H43.7285V27.7234Z" fill="black"/>
<path d="M47.0605 27.7234H50.4974V26.3706H47.0605V24.0169H50.7008V22.6504H45.3945V31.7705H50.9042V30.404H47.0605V27.7234Z" fill="black"/>
<path d="M52.5682 22.6504H50.9023V31.7705H56.3159V30.3765H52.5682V22.6504Z" fill="black"/>
</g>
<path d="M5.78261 69.9128H14.8336V73.0136H12.1698V79.4727H8.44643V73.0136H5.78261V69.9128ZM21.2088 74.8394C20.8417 74.8394 20.4645 74.9731 20.0774 75.2405C19.6903 75.5079 19.4948 75.7613 19.4908 76.0007V79.4727H15.8872V72.0319H19.4908V72.8281C19.6943 72.5208 19.9457 72.2754 20.245 72.0918C20.5483 71.9082 20.8696 71.7985 21.2088 71.7626V74.8394ZM23.0944 78.8142C22.7752 78.5149 22.5198 78.1398 22.3282 77.6888C22.1406 77.2339 22.0469 76.745 22.0469 76.2222C22.0469 75.6994 22.0987 75.2465 22.2025 74.8634C22.41 74.1011 22.7732 73.4606 23.292 72.9418C23.5394 72.6864 23.8148 72.4709 24.1181 72.2953C24.7406 71.9322 25.3971 71.7506 26.0875 71.7506C26.7819 71.7506 27.3905 71.98 27.9132 72.439C28.0809 72.5866 28.2265 72.7562 28.3502 72.9478L29.2062 72.0319H31.1697V79.4727H29.2062L28.3502 78.2335C27.6958 79.1993 26.7041 79.6842 25.3751 79.6882C25.008 79.6921 24.6149 79.6203 24.1959 79.4727C23.7808 79.329 23.4137 79.1095 23.0944 78.8142ZM27.9432 74.2887C27.7995 74.2049 27.6279 74.163 27.4284 74.163C27.2288 74.163 27.0173 74.2348 26.7938 74.3785C26.5744 74.5182 26.3768 74.6957 26.2012 74.9112C25.8101 75.3941 25.6146 75.885 25.6146 76.3838C25.6146 76.735 25.7223 76.9824 25.9378 77.1261C26.1374 77.2578 26.4407 77.2398 26.8477 77.0722C27.2588 76.9006 27.6239 76.6791 27.9432 76.4078V74.2887ZM36.635 74.2228L37.6526 72.0319H40.508L36.8385 79.4607C36.7667 79.6163 36.6111 79.6941 36.3716 79.6941C36.1322 79.6941 35.9705 79.6163 35.8867 79.4607L32.0257 72.0319H35.5276L36.635 74.2228ZM45.7279 74.163C45.7279 73.8118 45.5643 73.6362 45.237 73.6362C44.8619 73.6721 44.6185 73.8657 44.5067 74.2169C44.4509 74.3845 44.411 74.58 44.387 74.8035C44.3671 75.023 44.3351 75.2584 44.2912 75.5099L45.6022 75.2165L45.7159 74.3007L45.7279 74.163ZM44.9198 76.8867C44.9198 76.8867 44.81 76.8867 44.5905 76.8867C44.4868 76.8867 44.387 76.8827 44.2912 76.8747C44.2912 77.3496 44.5446 77.609 45.0515 77.6529C45.1911 77.6649 45.3268 77.6708 45.4585 77.6708C45.7977 77.6708 46.2227 77.593 46.7336 77.4374C47.2484 77.2817 47.7093 77.0283 48.1164 76.6771L48.4875 78.5388C47.5976 79.309 46.2527 79.6941 44.4529 79.6941C43.4193 79.6941 42.5313 79.3928 41.789 78.7902C40.9829 78.1318 40.5798 77.2199 40.5798 76.0546C40.5798 75.1766 40.8073 74.3885 41.2623 73.6901C41.6853 73.0516 42.258 72.5667 42.9803 72.2355C43.7026 71.9042 44.4828 71.7386 45.3208 71.7386C46.4063 71.7386 47.2264 71.9761 47.7811 72.451C48.3398 72.9259 48.6172 73.5125 48.6132 74.2109C48.6132 74.9092 48.28 75.5298 47.6135 76.0725C46.9471 76.6153 46.0492 76.8867 44.9198 76.8867ZM53.2824 79.4727H49.8882V69.398H53.2824V79.4727ZM56.5807 68.5839C57.1673 68.5839 57.6023 68.7076 57.8857 68.9551C58.169 69.1985 58.3087 69.5098 58.3047 69.8889C58.3047 70.268 58.1231 70.6172 57.76 70.9365C57.4008 71.2557 56.9199 71.4154 56.3173 71.4154C55.4713 71.4154 54.9445 71.16 54.737 70.6491C54.6771 70.5055 54.6472 70.3458 54.6472 70.1702C54.6472 69.9947 54.6891 69.8111 54.7729 69.6195C54.8567 69.428 54.9824 69.2564 55.15 69.1047C55.5212 68.7575 55.9981 68.5839 56.5807 68.5839ZM58.2029 79.4727H54.737V72.0319H58.2029V79.4727ZM60.4836 78.8142C60.1644 78.5149 59.909 78.1398 59.7174 77.6888C59.5299 77.2339 59.4361 76.745 59.4361 76.2222C59.4361 75.6994 59.488 75.2465 59.5917 74.8634C59.7992 74.1011 60.1624 73.4606 60.6812 72.9418C60.9286 72.6864 61.204 72.4709 61.5073 72.2953C62.1298 71.9322 62.7863 71.7506 63.4767 71.7506C64.1711 71.7506 64.7797 71.98 65.3025 72.439C65.4701 72.5866 65.6157 72.7562 65.7394 72.9478L66.5955 72.0319H68.5589V79.4727H66.5955L65.7394 78.2335C65.085 79.1993 64.0933 79.6842 62.7644 79.6882C62.3972 79.6921 62.0041 79.6203 61.5851 79.4727C61.1701 79.329 60.8029 79.1095 60.4836 78.8142ZM65.3324 74.2887C65.1887 74.2049 65.0171 74.163 64.8176 74.163C64.6181 74.163 64.4065 74.2348 64.1831 74.3785C63.9636 74.5182 63.766 74.6957 63.5904 74.9112C63.1993 75.3941 63.0038 75.885 63.0038 76.3838C63.0038 76.735 63.1115 76.9824 63.327 77.1261C63.5266 77.2578 63.8299 77.2398 64.2369 77.0722C64.648 76.9006 65.0131 76.6791 65.3324 76.4078V74.2887Z" fill="black"/>
<defs>
<linearGradient id="paint0_linear_3366_55304" x1="37.4361" y1="2.65137" x2="37.4361" y2="51.7915" gradientUnits="userSpaceOnUse">
<stop offset="0.354999" stop-color="#282828"/>
<stop offset="0.654999" stop-color="#282828"/>
<stop offset="0.834999" stop-color="#565656" stop-opacity="0.51"/>
</linearGradient>
<clipPath id="clip0_3366_55304">
<rect width="74.8801" height="51.7609" fill="white"/>
</clipPath>
</defs>
</svg>
