<svg width="20" height="20" viewBox="0 0 20 20" fill="none" xmlns="http://www.w3.org/2000/svg">
<path fill-rule="evenodd" clip-rule="evenodd" d="M12.9326 1.12583C13.2316 0.953242 13.6138 1.05566 13.7864 1.3546L15.7082 4.6833C15.8199 4.87679 15.8199 5.11518 15.708 5.3086C15.5962 5.50202 15.3897 5.62105 15.1663 5.6208L7.49336 5.61247C7.2106 5.61216 6.96328 5.42206 6.89024 5.14891C6.81721 4.87575 6.93666 4.58758 7.18153 4.44621L12.9326 1.12583ZM9.8222 4.365L14.0837 4.36963L13.0164 2.52086L9.8222 4.365Z" fill="#0C0C0C"/>
<path fill-rule="evenodd" clip-rule="evenodd" d="M2.5013 5.62543C2.38624 5.62543 2.29297 5.71869 2.29297 5.83376V17.5004C2.29297 17.6155 2.38624 17.7088 2.5013 17.7088H17.5013C17.6164 17.7088 17.7096 17.6155 17.7096 17.5004V5.83376C17.7096 5.71869 17.6164 5.62543 17.5013 5.62543H2.5013ZM1.04297 5.83376C1.04297 5.02833 1.69589 4.37543 2.5013 4.37543H17.5013C18.3067 4.37543 18.9596 5.02833 18.9596 5.83376V17.5004C18.9596 18.3059 18.3067 18.9588 17.5013 18.9588H2.5013C1.69589 18.9588 1.04297 18.3059 1.04297 17.5004V5.83376Z" fill="#0C0C0C"/>
<path fill-rule="evenodd" clip-rule="evenodd" d="M11.8763 11.6671C11.8763 10.143 13.1646 8.95876 14.6888 8.95876H18.3346C18.6798 8.95876 18.9596 9.23858 18.9596 9.58376V13.7504C18.9596 14.0956 18.6798 14.3754 18.3346 14.3754H14.6888C13.1646 14.3754 11.8763 13.1912 11.8763 11.6671ZM14.6888 10.2088C13.7968 10.2088 13.1263 10.8901 13.1263 11.6671C13.1263 12.4441 13.7968 13.1254 14.6888 13.1254H17.7096V10.2088H14.6888Z" fill="#0C0C0C"/>
<path fill-rule="evenodd" clip-rule="evenodd" d="M18.3346 6.25043C18.6798 6.25043 18.9596 6.53025 18.9596 6.87543V16.8754C18.9596 17.2206 18.6798 17.5004 18.3346 17.5004C17.9895 17.5004 17.7096 17.2206 17.7096 16.8754V6.87543C17.7096 6.53025 17.9895 6.25043 18.3346 6.25043Z" fill="#0C0C0C"/>
</svg>
