<svg width="20" height="20" viewBox="0 0 20 20" fill="none" xmlns="http://www.w3.org/2000/svg">
<mask id="path-1-inside-1_11454_12324" fill="white">
<path fill-rule="evenodd" clip-rule="evenodd" d="M12.9326 1.12583C13.2316 0.953242 13.6138 1.05566 13.7864 1.3546L15.7082 4.6833C15.8199 4.87679 15.8199 5.11518 15.708 5.3086C15.5962 5.50202 15.3897 5.62105 15.1663 5.6208L7.49336 5.61247C7.2106 5.61216 6.96328 5.42206 6.89024 5.14891C6.81721 4.87575 6.93666 4.58758 7.18153 4.44621L12.9326 1.12583ZM9.8222 4.365L14.0837 4.36963L13.0164 2.52086L9.8222 4.365Z"/>
<path fill-rule="evenodd" clip-rule="evenodd" d="M2.5013 5.62543C2.38624 5.62543 2.29297 5.71869 2.29297 5.83376V17.5004C2.29297 17.6155 2.38624 17.7088 2.5013 17.7088H17.5013C17.6164 17.7088 17.7096 17.6155 17.7096 17.5004V5.83376C17.7096 5.71869 17.6164 5.62543 17.5013 5.62543H2.5013ZM1.04297 5.83376C1.04297 5.02833 1.69589 4.37543 2.5013 4.37543H17.5013C18.3067 4.37543 18.9596 5.02833 18.9596 5.83376V17.5004C18.9596 18.3059 18.3067 18.9588 17.5013 18.9588H2.5013C1.69589 18.9588 1.04297 18.3059 1.04297 17.5004V5.83376Z"/>
<path fill-rule="evenodd" clip-rule="evenodd" d="M11.8763 11.6671C11.8763 10.143 13.1646 8.95876 14.6888 8.95876H18.3346C18.6798 8.95876 18.9596 9.23858 18.9596 9.58376V13.7504C18.9596 14.0956 18.6798 14.3754 18.3346 14.3754H14.6888C13.1646 14.3754 11.8763 13.1912 11.8763 11.6671ZM14.6888 10.2088C13.7968 10.2088 13.1263 10.8901 13.1263 11.6671C13.1263 12.4441 13.7968 13.1254 14.6888 13.1254H17.7096V10.2088H14.6888Z"/>
<path fill-rule="evenodd" clip-rule="evenodd" d="M18.3346 6.25043C18.6798 6.25043 18.9596 6.53025 18.9596 6.87543V16.8754C18.9596 17.2206 18.6798 17.5004 18.3346 17.5004C17.9895 17.5004 17.7096 17.2206 17.7096 16.8754V6.87543C17.7096 6.53025 17.9895 6.25043 18.3346 6.25043Z"/>
</mask>
<path fill-rule="evenodd" clip-rule="evenodd" d="M12.9326 1.12583C13.2316 0.953242 13.6138 1.05566 13.7864 1.3546L15.7082 4.6833C15.8199 4.87679 15.8199 5.11518 15.708 5.3086C15.5962 5.50202 15.3897 5.62105 15.1663 5.6208L7.49336 5.61247C7.2106 5.61216 6.96328 5.42206 6.89024 5.14891C6.81721 4.87575 6.93666 4.58758 7.18153 4.44621L12.9326 1.12583ZM9.8222 4.365L14.0837 4.36963L13.0164 2.52086L9.8222 4.365Z" fill="#0C0C0C"/>
<path fill-rule="evenodd" clip-rule="evenodd" d="M2.5013 5.62543C2.38624 5.62543 2.29297 5.71869 2.29297 5.83376V17.5004C2.29297 17.6155 2.38624 17.7088 2.5013 17.7088H17.5013C17.6164 17.7088 17.7096 17.6155 17.7096 17.5004V5.83376C17.7096 5.71869 17.6164 5.62543 17.5013 5.62543H2.5013ZM1.04297 5.83376C1.04297 5.02833 1.69589 4.37543 2.5013 4.37543H17.5013C18.3067 4.37543 18.9596 5.02833 18.9596 5.83376V17.5004C18.9596 18.3059 18.3067 18.9588 17.5013 18.9588H2.5013C1.69589 18.9588 1.04297 18.3059 1.04297 17.5004V5.83376Z" fill="#0C0C0C"/>
<path fill-rule="evenodd" clip-rule="evenodd" d="M11.8763 11.6671C11.8763 10.143 13.1646 8.95876 14.6888 8.95876H18.3346C18.6798 8.95876 18.9596 9.23858 18.9596 9.58376V13.7504C18.9596 14.0956 18.6798 14.3754 18.3346 14.3754H14.6888C13.1646 14.3754 11.8763 13.1912 11.8763 11.6671ZM14.6888 10.2088C13.7968 10.2088 13.1263 10.8901 13.1263 11.6671C13.1263 12.4441 13.7968 13.1254 14.6888 13.1254H17.7096V10.2088H14.6888Z" fill="#0C0C0C"/>
<path fill-rule="evenodd" clip-rule="evenodd" d="M18.3346 6.25043C18.6798 6.25043 18.9596 6.53025 18.9596 6.87543V16.8754C18.9596 17.2206 18.6798 17.5004 18.3346 17.5004C17.9895 17.5004 17.7096 17.2206 17.7096 16.8754V6.87543C17.7096 6.53025 17.9895 6.25043 18.3346 6.25043Z" fill="#0C0C0C"/>
<path d="M12.9326 1.12583L13.4326 1.99186L13.4326 1.99186L12.9326 1.12583ZM13.7864 1.3546L14.6524 0.854596L13.7864 1.3546ZM15.7082 4.6833L14.8422 5.18331L14.8422 5.18331L15.7082 4.6833ZM15.708 5.3086L14.8423 4.80813L14.8423 4.80813L15.708 5.3086ZM15.1663 5.6208L15.1674 4.62081L15.1674 4.62081L15.1663 5.6208ZM7.49336 5.61247L7.49227 6.61247L7.49227 6.61247L7.49336 5.61247ZM6.89024 5.14891L5.92418 5.4072L5.92418 5.4072L6.89024 5.14891ZM7.18153 4.44621L6.68154 3.58018L6.68154 3.58018L7.18153 4.44621ZM9.8222 4.365L9.3222 3.49897C8.9304 3.72517 8.73928 4.18624 8.85613 4.62329C8.97298 5.06035 9.36871 5.36451 9.82111 5.365L9.8222 4.365ZM14.0837 4.36963L14.0827 5.36963C14.4401 5.37002 14.7706 5.17957 14.9495 4.8701C15.1284 4.56063 15.1285 4.1792 14.9498 3.86963L14.0837 4.36963ZM13.0164 2.52086L13.8824 2.02086C13.6062 1.54257 12.9946 1.37869 12.5164 1.65483L13.0164 2.52086ZM17.7096 13.1254V14.1254C18.2619 14.1254 18.7096 13.6777 18.7096 13.1254H17.7096ZM17.7096 10.2088H18.7096C18.7096 9.65648 18.2619 9.20876 17.7096 9.20876V10.2088ZM12.9326 1.12583L13.4326 1.99186C13.2533 2.09541 13.0239 2.03396 12.9204 1.8546L13.7864 1.3546L14.6524 0.854596C14.2037 0.0773718 13.2098 -0.188926 12.4326 0.259804L12.9326 1.12583ZM13.7864 1.3546L12.9204 1.8546L14.8422 5.18331L15.7082 4.6833L16.5742 4.1833L14.6524 0.854596L13.7864 1.3546ZM15.7082 4.6833L14.8422 5.18331C14.7752 5.06722 14.7752 4.92418 14.8423 4.80813L15.708 5.3086L16.5738 5.80907C16.8645 5.30617 16.8647 4.68635 16.5742 4.1833L15.7082 4.6833ZM15.708 5.3086L14.8423 4.80813C14.9094 4.69208 15.0333 4.62066 15.1674 4.62081L15.1663 5.6208L15.1652 6.6208C15.7461 6.62144 16.2831 6.31196 16.5738 5.80907L15.708 5.3086ZM15.1663 5.6208L15.1674 4.62081L7.49444 4.61247L7.49336 5.61247L7.49227 6.61247L15.1652 6.6208L15.1663 5.6208ZM7.49336 5.61247L7.49444 4.61247C7.66409 4.61266 7.81249 4.72672 7.85631 4.89061L6.89024 5.14891L5.92418 5.4072C6.11406 6.11741 6.75711 6.61167 7.49227 6.61247L7.49336 5.61247ZM6.89024 5.14891L7.85631 4.89061C7.90013 5.05451 7.82846 5.22741 7.68153 5.31223L7.18153 4.44621L6.68154 3.58018C6.04487 3.94776 5.73429 4.69699 5.92418 5.4072L6.89024 5.14891ZM7.18153 4.44621L7.68153 5.31223L13.4326 1.99186L12.9326 1.12583L12.4326 0.259804L6.68154 3.58018L7.18153 4.44621ZM9.8222 4.365L9.82111 5.365L14.0827 5.36963L14.0837 4.36963L14.0848 3.36963L9.82328 3.365L9.8222 4.365ZM14.0837 4.36963L14.9498 3.86963L13.8824 2.02086L13.0164 2.52086L12.1503 3.02086L13.2177 4.86963L14.0837 4.36963ZM13.0164 2.52086L12.5164 1.65483L9.3222 3.49897L9.8222 4.365L10.3222 5.23103L13.5163 3.38689L13.0164 2.52086ZM2.5013 5.62543V4.62543C1.83395 4.62543 1.29297 5.16641 1.29297 5.83376H2.29297H3.29297C3.29297 6.27098 2.93852 6.62543 2.5013 6.62543V5.62543ZM2.29297 5.83376H1.29297V17.5004H2.29297H3.29297V5.83376H2.29297ZM2.29297 17.5004H1.29297C1.29297 18.1678 1.83395 18.7088 2.5013 18.7088V17.7088V16.7088C2.93852 16.7088 3.29297 17.0632 3.29297 17.5004H2.29297ZM2.5013 17.7088V18.7088H17.5013V17.7088V16.7088H2.5013V17.7088ZM17.5013 17.7088V18.7088C18.1687 18.7088 18.7096 18.1678 18.7096 17.5004H17.7096H16.7096C16.7096 17.0632 17.0641 16.7088 17.5013 16.7088V17.7088ZM17.7096 17.5004H18.7096V5.83376H17.7096H16.7096V17.5004H17.7096ZM17.7096 5.83376H18.7096C18.7096 5.1664 18.1687 4.62543 17.5013 4.62543V5.62543V6.62543C17.0641 6.62543 16.7096 6.27097 16.7096 5.83376H17.7096ZM17.5013 5.62543V4.62543H2.5013V5.62543V6.62543H17.5013V5.62543ZM1.04297 5.83376H2.04297C2.04297 5.58062 2.24817 5.37543 2.5013 5.37543V4.37543V3.37543C1.14362 3.37543 0.0429688 4.47603 0.0429688 5.83376H1.04297ZM2.5013 4.37543V5.37543H17.5013V4.37543V3.37543H2.5013V4.37543ZM17.5013 4.37543V5.37543C17.7544 5.37543 17.9596 5.58062 17.9596 5.83376H18.9596H19.9596C19.9596 4.47605 18.859 3.37543 17.5013 3.37543V4.37543ZM18.9596 5.83376H17.9596V17.5004H18.9596H19.9596V5.83376H18.9596ZM18.9596 17.5004H17.9596C17.9596 17.7536 17.7544 17.9588 17.5013 17.9588V18.9588V19.9588C18.859 19.9588 19.9596 18.8581 19.9596 17.5004H18.9596ZM17.5013 18.9588V17.9588H2.5013V18.9588V19.9588H17.5013V18.9588ZM2.5013 18.9588V17.9588C2.24817 17.9588 2.04297 17.7536 2.04297 17.5004H1.04297H0.0429688C0.0429688 18.8582 1.14362 19.9588 2.5013 19.9588V18.9588ZM1.04297 17.5004H2.04297V5.83376H1.04297H0.0429688V17.5004H1.04297ZM11.8763 11.6671H12.8763C12.8763 10.7437 13.6671 9.95876 14.6888 9.95876V8.95876V7.95876C12.662 7.95876 10.8763 9.54219 10.8763 11.6671H11.8763ZM14.6888 8.95876V9.95876H18.3346V8.95876V7.95876H14.6888V8.95876ZM18.3346 8.95876V9.95876C18.1275 9.95876 17.9596 9.79087 17.9596 9.58376H18.9596H19.9596C19.9596 8.6863 19.2321 7.95876 18.3346 7.95876V8.95876ZM18.9596 9.58376H17.9596V13.7504H18.9596H19.9596V9.58376H18.9596ZM18.9596 13.7504H17.9596C17.9596 13.5433 18.1275 13.3754 18.3346 13.3754V14.3754V15.3754C19.2321 15.3754 19.9596 14.6479 19.9596 13.7504H18.9596ZM18.3346 14.3754V13.3754H14.6888V14.3754V15.3754H18.3346V14.3754ZM14.6888 14.3754V13.3754C13.6671 13.3754 12.8763 12.5905 12.8763 11.6671H11.8763H10.8763C10.8763 13.792 12.662 15.3754 14.6888 15.3754V14.3754ZM14.6888 10.2088V9.20876C13.2852 9.20876 12.1263 10.298 12.1263 11.6671H13.1263H14.1263C14.1263 11.4822 14.3084 11.2088 14.6888 11.2088V10.2088ZM13.1263 11.6671H12.1263C12.1263 13.0362 13.2852 14.1254 14.6888 14.1254V13.1254V12.1254C14.3084 12.1254 14.1263 11.852 14.1263 11.6671H13.1263ZM14.6888 13.1254V14.1254H17.7096V13.1254V12.1254H14.6888V13.1254ZM17.7096 13.1254H18.7096V10.2088H17.7096H16.7096V13.1254H17.7096ZM17.7096 10.2088V9.20876H14.6888V10.2088V11.2088H17.7096V10.2088ZM18.3346 6.25043V7.25043C18.1275 7.25043 17.9596 7.08253 17.9596 6.87543H18.9596H19.9596C19.9596 5.97796 19.2321 5.25043 18.3346 5.25043V6.25043ZM18.9596 6.87543H17.9596V16.8754H18.9596H19.9596V6.87543H18.9596ZM18.9596 16.8754H17.9596C17.9596 16.6683 18.1275 16.5004 18.3346 16.5004V17.5004V18.5004C19.2321 18.5004 19.9596 17.7729 19.9596 16.8754H18.9596ZM18.3346 17.5004V16.5004C18.5417 16.5004 18.7096 16.6683 18.7096 16.8754H17.7096H16.7096C16.7096 17.7729 17.4372 18.5004 18.3346 18.5004V17.5004ZM17.7096 16.8754H18.7096V6.87543H17.7096H16.7096V16.8754H17.7096ZM17.7096 6.87543H18.7096C18.7096 7.08253 18.5417 7.25043 18.3346 7.25043V6.25043V5.25043C17.4372 5.25043 16.7096 5.97796 16.7096 6.87543H17.7096Z" fill="#07689F" mask="url(#path-1-inside-1_11454_12324)"/>
</svg>
