<svg width="82" height="98" viewBox="0 0 82 98" fill="none" xmlns="http://www.w3.org/2000/svg">
<path d="M33.5577 43.558C36.8225 43.8886 39.7824 44.5292 42.5134 45.3304C42.5208 45.3368 42.5282 45.3435 42.5358 45.3499L42.5445 45.3396C46.4482 46.4874 49.8835 47.9628 53.0681 49.3314C57.7696 51.352 62.133 53.2261 66.5237 53.2261C67.5374 53.2261 68.5527 53.1249 69.5741 52.904C69.5906 52.9173 69.6045 52.9284 69.6138 52.9359L69.6531 52.8867C72.4961 52.2543 75.3872 50.6813 78.4249 47.7087L75.1519 44.3624C73.5857 45.8947 72.1048 46.944 70.6452 47.6057C67.2806 44.3704 62.5623 38.5249 64.0232 33.8462C65.9889 27.5561 72.7658 23.7483 72.8299 23.7117L78.4387 20.6421L72.1714 19.3667C71.9354 19.3164 49.4861 15.037 41.646 37.1958C39.6022 33.9109 38.4306 30.009 38.4306 26.146C38.4306 10.0412 56.9854 8.29042 57.7739 8.22425L66.3132 7.50204L58.5991 3.78325C57.6917 3.34436 36.2364 -6.74214 20.7786 7.94994C8.19489 19.9062 8.2169 38.1098 8.67107 44.5356C5.16653 47.1674 3.69002 49.7336 3.55859 49.9716L7.64995 52.2435C7.7094 52.1361 13.8028 41.5375 33.5577 43.558ZM65.2002 23.7003C62.999 25.8374 60.7043 28.7767 59.557 32.4521C57.6992 38.396 61.5425 44.4627 65.0052 48.4376C62.0377 48.0904 58.8361 46.7151 54.9149 45.0299C52.0872 43.8143 48.8989 42.4451 45.2744 41.2863C49.0313 27.3725 58.7697 24.2012 65.2002 23.7003ZM24.0015 11.3419C31.8847 3.85186 42.0078 4.13748 48.8624 5.56601C41.4546 8.43223 33.7498 14.6034 33.7498 26.146C33.7498 30.8214 35.082 35.4282 37.4678 39.3669C36.3552 39.1782 35.2101 39.0195 34.0287 38.8999C24.7278 37.96 17.9935 39.5432 13.2586 41.7823C13.1367 34.6853 14.266 20.5938 24.0015 11.3419Z" fill="url(#paint0_linear_3366_55270)"/>
<path d="M6.82611 82.7562C6.49265 82.7562 6.22785 82.5993 6.0317 82.2854C5.83554 82.0304 5.73747 81.7166 5.73747 81.3439C5.73747 80.7358 6.23766 79.3627 7.23803 77.2247C8.33649 74.8905 8.95437 73.331 9.09168 72.5464C9.13091 72.2522 9.16033 71.958 9.17995 71.6637C9.21918 71.3695 9.23879 71.0753 9.23879 70.7811C9.23879 69.6041 9.05245 68.6528 8.67976 67.927C8.22861 67.0051 7.55188 66.4265 6.64958 66.1911C6.53189 66.1715 6.41419 66.1617 6.2965 66.1617C6.17881 66.142 6.05131 66.1322 5.914 66.1322C4.97247 66.1322 4.07017 66.4265 3.2071 67.0149C2.26556 67.6818 1.63788 68.5057 1.32403 69.4864C1.14749 70.0161 1.05922 70.5162 1.05922 70.987C1.05922 72.262 1.68691 72.8995 2.94229 72.8995C3.43267 72.8995 3.94267 72.6347 4.47228 72.1051L5.06074 71.5166C5.08036 71.497 5.09016 71.4872 5.09016 71.4872C5.10978 71.4872 5.11959 71.4872 5.11959 71.4872C5.15882 71.4872 5.18824 71.5166 5.20785 71.5755C5.24708 71.6343 5.25689 71.6834 5.23728 71.7226C5.17843 71.8991 5.03132 72.1051 4.79593 72.3405C4.58017 72.5758 4.32517 72.7916 4.03094 72.9878C3.75632 73.1839 3.50133 73.3114 3.26594 73.3703C3.18748 73.3899 3.08941 73.4095 2.97171 73.4291C2.85402 73.4291 2.73633 73.4291 2.61864 73.4291C2.32441 73.4291 2.01057 73.3703 1.67711 73.2526C1.34365 73.1349 1.04942 72.8995 0.794418 72.5464C0.460959 72.0364 0.294229 71.4382 0.294229 70.7516C0.294229 70.6339 0.294229 70.5162 0.294229 70.3986C0.313844 70.2809 0.33346 70.173 0.353075 70.0749C0.647304 68.6822 1.36326 67.5936 2.50095 66.809C3.52094 66.1224 4.65863 65.7792 5.914 65.7792C7.14977 65.7792 8.15995 66.1911 8.94456 67.0149C9.45456 67.5249 9.79783 68.1134 9.97437 68.7803C10.1705 69.4276 10.2686 70.1043 10.2686 70.8105C10.2686 72.1247 9.97436 73.5762 9.38591 75.1651C9.07206 75.9889 8.51303 77.1952 7.7088 78.7841C7.10073 79.9806 6.79669 80.7554 6.79669 81.1085C6.79669 81.2458 6.81631 81.3635 6.85554 81.4616C6.91438 81.5596 7.00265 81.6087 7.12034 81.6087C7.41457 81.6087 7.76765 81.442 8.17957 81.1085C8.6111 80.7554 9.04264 80.3337 9.47418 79.8433C9.90571 79.3529 10.2882 78.8822 10.6217 78.431C10.8767 78.0975 11.1807 77.6856 11.5338 77.1952C11.8869 76.6852 12.2105 76.2145 12.5047 75.7829C12.799 75.3318 12.9755 75.0278 13.0343 74.8708C13.1324 74.4001 13.2305 73.9587 13.3286 73.5468C13.4463 73.1153 13.5836 72.7132 13.7405 72.3405L14.0641 71.6343C14.1622 71.4382 14.2603 71.193 14.3584 70.8987C14.4957 70.6045 14.7016 70.3201 14.9763 70.0455C15.2313 69.8297 15.4764 69.7218 15.7118 69.7218C16.0649 69.7218 16.2414 69.9768 16.2414 70.4868C16.2414 70.9184 16.0257 71.4382 15.5941 72.0462L14.9763 72.8995C14.8586 73.0368 14.7409 73.1839 14.6232 73.3408C14.5251 73.4782 14.427 73.6253 14.329 73.7822C13.8778 74.4687 13.6522 75.1847 13.6522 75.9301C13.6522 77.1462 13.7111 78.0681 13.8288 78.6958C14.0053 79.755 14.3878 80.5593 14.9763 81.1085C15.5647 81.6381 16.1532 81.9029 16.7416 81.9029C17.8793 81.9029 18.9091 81.0006 19.831 79.196C20.6745 77.5287 21.0962 75.6947 21.0962 73.6939C21.0962 71.3009 20.4391 69.6238 19.1249 68.6626C18.7522 68.3684 18.5659 68.1134 18.5659 67.8976C18.5659 67.623 18.7522 67.4857 19.1249 67.4857C19.3603 67.4857 19.6055 67.574 19.8605 67.7505C20.6058 68.3193 21.1845 69.153 21.5964 70.2514C21.9691 71.3107 22.1554 72.4876 22.1554 73.7822C22.1554 76.0379 21.6651 78.0387 20.6843 79.7845C19.6643 81.6283 18.3109 82.5698 16.6239 82.6091C15.3882 82.6091 14.4368 81.8931 13.7699 80.4612C13.2599 79.3431 12.9461 77.8425 12.8284 75.9595C12.7303 76.136 12.544 76.4401 12.2694 76.8716C11.9947 77.3031 11.6907 77.7641 11.3572 78.2545C11.0434 78.7449 10.7492 79.1862 10.4746 79.5785C10.1411 80.0493 9.7586 80.5298 9.32706 81.0202C8.89553 81.5106 8.46399 81.9225 8.03245 82.256C7.60092 82.5894 7.1988 82.7562 6.82611 82.7562ZM25.1203 82.6973C24.2768 82.6973 23.708 82.1677 23.4137 81.1085C23.3745 80.9123 23.3353 80.726 23.296 80.5495C23.2764 80.3533 23.2666 80.1572 23.2666 79.961C23.2666 79.1764 23.4334 78.4212 23.7668 77.6954C24.1003 76.9501 24.571 76.342 25.1791 75.8712C25.7872 75.3808 26.4835 75.1356 27.2681 75.1356H27.5035C27.5428 75.1553 27.6114 75.1651 27.7095 75.1651C28.5726 75.322 29.0041 75.8026 29.0041 76.6068C29.0041 76.7637 28.9354 76.8422 28.7981 76.8422C28.6412 76.8422 28.5627 76.7637 28.5627 76.6068C28.5235 76.391 28.4156 76.2439 28.2391 76.1654C28.0822 76.087 27.8664 76.0478 27.5918 76.0478C27.4741 76.0478 27.3956 76.0576 27.3564 76.0772C26.6895 76.1753 26.1305 76.4695 25.6793 76.9599C25.2281 77.4502 24.8947 78.0387 24.6789 78.7252C24.4632 79.3922 24.3553 80.0493 24.3553 80.6966C24.3553 81.03 24.4337 81.3733 24.5907 81.7264C24.7476 82.0794 25.032 82.256 25.4439 82.256C25.7185 82.256 25.9833 82.1481 26.2383 81.9323C26.4933 81.697 26.7091 81.4125 26.8856 81.0791C27.1014 80.6671 27.2485 80.216 27.327 79.7256C27.4054 79.2352 27.4447 78.6468 27.4447 77.9602C27.4447 77.7052 27.6016 77.5777 27.9154 77.5777C28.092 77.5777 28.2587 77.6268 28.4156 77.7249C28.5529 77.8229 28.6314 77.9406 28.651 78.0779C28.651 78.176 28.651 78.2839 28.651 78.4016C28.651 78.4997 28.6412 78.5977 28.6216 78.6958C28.602 78.7939 28.5922 78.9018 28.5922 79.0195C28.5922 79.1372 28.5922 79.245 28.5922 79.3431C28.5922 80.01 28.6608 80.52 28.7981 80.8731C28.9158 81.187 29.1022 81.3439 29.3572 81.3439C29.5533 81.3439 29.7397 81.2556 29.9162 81.0791C30.0535 80.9418 30.23 80.726 30.4458 80.4318C30.6616 80.1375 30.8675 79.8335 31.0637 79.5197C31.2598 79.2058 31.3972 78.9606 31.4756 78.7841C31.5345 78.686 31.5933 78.637 31.6521 78.637C31.6914 78.637 31.7208 78.6664 31.7404 78.7252C31.7796 78.7645 31.7796 78.8233 31.7404 78.9018C31.5247 79.3725 31.2795 79.8531 31.0048 80.3435C30.7498 80.8143 30.4458 81.236 30.0927 81.6087C29.9554 81.7264 29.8083 81.8343 29.6514 81.9323C29.4945 82.0108 29.3081 82.05 29.0924 82.05C28.9158 82.05 28.7393 82.0206 28.5627 81.9618C28.4058 81.8833 28.2881 81.7558 28.2097 81.5793C28.0724 81.3243 27.9743 81.0398 27.9154 80.726C27.8566 80.4121 27.837 80.1081 27.8566 79.8139C27.8174 79.7158 27.7879 79.6668 27.7683 79.6668C27.7291 79.6668 27.7095 79.706 27.7095 79.7845C27.6114 80.6868 27.2976 81.4027 26.7679 81.9323C26.258 82.4423 25.7087 82.6973 25.1203 82.6973ZM32.7571 82.3148C32.4629 82.3148 32.1687 82.2462 31.8744 82.1089C31.2467 81.7558 30.9329 81.2066 30.9329 80.4612C30.9329 79.657 31.2565 78.7841 31.9039 77.8425L32.3746 77.2247L32.816 76.6068C33.1298 76.1753 33.2867 75.7731 33.2867 75.4004C33.2671 74.8512 33.0023 74.5766 32.4923 74.5766C32.4335 74.5766 32.3942 74.5864 32.3746 74.606C31.9235 74.6649 31.6979 74.9983 31.6979 75.6064C31.6979 75.7829 31.7273 75.9595 31.7862 76.136V76.1654C31.7665 76.1851 31.7567 76.2047 31.7567 76.2243L31.6979 76.2831H31.639C31.3644 76.1851 31.2271 75.9203 31.2271 75.4887C31.2271 75.0768 31.3252 74.7433 31.5214 74.4883C31.7567 74.1941 32.051 74.047 32.404 74.047C33.3652 74.047 33.8458 74.5374 33.8458 75.5181C33.8458 75.832 33.7869 76.1654 33.6692 76.5185C33.5123 76.7931 33.3063 77.156 33.0513 77.6072C32.816 78.0387 32.561 78.5683 32.2864 79.196C32.1883 79.4118 32.1196 79.6275 32.0804 79.8433C32.0412 80.0395 32.0215 80.2258 32.0215 80.4023C32.0215 81.2458 32.3942 81.6675 33.1396 81.6675C33.7869 81.6675 34.3852 81.3439 34.9344 80.6966C35.1306 80.4808 35.2973 80.265 35.4346 80.0493C35.5915 79.8139 35.7288 79.5687 35.8465 79.3137C36.0819 78.8037 36.1996 78.3624 36.1996 77.9897C35.8858 77.8131 35.7288 77.4306 35.7288 76.8422C35.7288 76.3714 35.8759 76.0968 36.1702 76.0183C36.1898 75.9987 36.2486 75.9889 36.3467 75.9889C36.5232 75.9889 36.6507 76.0772 36.7292 76.2537C36.8273 76.4499 36.8763 76.7637 36.8763 77.1952V77.4895C36.8763 77.5091 36.8763 77.5483 36.8763 77.6072C36.8763 77.666 36.8665 77.7249 36.8469 77.7837C36.9842 77.921 37.1902 77.9897 37.4648 77.9897H37.6707C37.8669 77.9897 38.0336 77.9602 38.1709 77.9014L38.3769 77.8425C38.475 77.8425 38.524 77.8818 38.524 77.9602C38.524 78.0779 38.4455 78.1662 38.2886 78.225C37.9944 78.3427 37.6904 78.4016 37.3765 78.4016C37.2784 78.4016 37.1804 78.4016 37.0823 78.4016C36.9842 78.382 36.8861 78.3624 36.7881 78.3427L36.1408 79.6373L35.7288 80.3729C35.6504 80.4906 35.5719 80.6083 35.4934 80.726C35.4346 80.8437 35.3659 80.9516 35.2875 81.0496C35.0521 81.3831 34.6892 81.6773 34.1988 81.9323C33.9438 82.05 33.6987 82.1481 33.4633 82.2266C33.2279 82.2854 32.9925 82.3148 32.7571 82.3148ZM41.8111 82.3443C40.7911 82.3443 40.0065 82.001 39.4573 81.3145C38.9277 80.6083 38.6628 79.7354 38.6628 78.6958C38.6628 77.4797 38.9767 76.4695 39.6044 75.6653C40.0555 75.0376 40.644 74.606 41.3698 74.3706C41.5463 74.3314 41.7032 74.302 41.8405 74.2824C41.9974 74.2431 42.1446 74.2235 42.2819 74.2235C42.8115 74.2235 43.2136 74.3706 43.4882 74.6649C43.7824 74.9395 43.9295 75.2828 43.9295 75.6947C43.9295 76.1851 43.7236 76.6852 43.3117 77.1952C43.1155 77.4306 42.8507 77.617 42.5172 77.7543C42.1838 77.872 41.8503 77.9308 41.5169 77.9308C41.203 77.9308 40.899 77.8622 40.6048 77.7249C40.3105 77.5876 40.085 77.3816 39.928 77.107C39.8103 77.3031 39.7319 77.5287 39.6926 77.7837C39.6534 78.0191 39.6338 78.3035 39.6338 78.637C39.6338 79.4412 39.8103 80.167 40.1634 80.8143C40.5165 81.4616 41.1148 81.7852 41.9582 81.7852C42.684 81.7852 43.243 81.5695 43.6353 81.1379C44.0276 80.6868 44.2238 80.265 44.2238 79.8727C44.2238 79.5589 44.1061 79.3431 43.8707 79.2254C43.7726 79.1666 43.7236 79.0979 43.7236 79.0195C43.7236 78.9018 43.7824 78.8429 43.9001 78.8429C44.0963 78.8429 44.2728 78.9508 44.4297 79.1666C44.6063 79.3627 44.6945 79.6177 44.6945 79.9316C44.6945 80.7162 44.4003 81.3145 43.8119 81.7264C43.2234 82.1383 42.5565 82.3443 41.8111 82.3443ZM41.5757 77.2835C41.7915 77.2835 42.0072 77.2541 42.223 77.1952C42.4584 77.1168 42.6447 76.9893 42.7821 76.8127C43.0567 76.4793 43.194 76.136 43.194 75.7829C43.194 75.5083 43.1253 75.2828 42.988 75.1062C42.8507 74.9297 42.6447 74.8414 42.3701 74.8414H42.1936C41.6836 74.8414 41.2717 74.9983 40.9578 75.3122C40.6048 75.6064 40.3498 75.9889 40.1928 76.4597C40.1928 76.6951 40.3301 76.8912 40.6048 77.0481C40.899 77.2051 41.2226 77.2835 41.5757 77.2835ZM56.6108 83.5506C55.6104 83.5506 54.7572 83.2858 54.051 82.7562C53.2468 82.1481 52.7074 81.3243 52.4328 80.2847C52.2955 79.8923 52.2268 79.4412 52.2268 78.9312C52.2268 77.9308 52.521 77.107 53.1095 76.4597C53.6979 75.7928 54.4728 75.4593 55.4339 75.4593C55.8458 75.4593 56.2185 75.5279 56.552 75.6653C56.905 75.7829 57.2091 76.0183 57.4641 76.3714C57.8172 76.8029 57.9937 77.3326 57.9937 77.9602C57.9937 78.4506 57.8956 78.8233 57.6995 79.0783C57.6406 79.1568 57.5916 79.196 57.5523 79.196C57.4739 79.196 57.4347 79.147 57.4347 79.0489C57.4347 78.99 57.4445 78.9508 57.4641 78.9312C57.6406 78.6566 57.7289 78.3624 57.7289 78.0485C57.7289 77.5974 57.5622 77.1756 57.2287 76.7833C56.8756 76.391 56.4245 76.1949 55.8752 76.1949C55.0318 76.1949 54.3649 76.4401 53.8745 76.9304C53.3841 77.4208 53.1389 78.0681 53.1389 78.8724C53.1389 79.2254 53.1978 79.6079 53.3155 80.0198C53.6881 81.3929 54.5512 82.2854 55.9047 82.6973C56.4147 82.8543 56.856 82.9327 57.2287 82.9327C58.0329 82.9327 58.7979 82.6483 59.5237 82.0794C60.7202 81.1183 61.3185 79.5589 61.3185 77.4012V76.8422C61.3185 76.7441 61.3087 76.6558 61.2891 76.5774C61.2891 76.4793 61.2793 76.3812 61.2596 76.2831L61.1125 75.2533L60.7594 73.1643C60.6221 72.4189 60.5143 71.7618 60.4358 71.193C60.3769 70.6241 60.3475 70.1141 60.3475 69.663C60.3475 69.5257 60.3475 69.3884 60.3475 69.2511C60.3671 69.1138 60.3868 68.9568 60.4064 68.7803C59.6806 68.7411 58.6214 68.6234 57.2287 68.4272C55.9929 68.2507 55.1397 68.1624 54.6689 68.1624H54.4041C53.7764 68.1624 53.1978 68.2605 52.6681 68.4566C52.1582 68.6332 51.6874 68.8882 51.2558 69.2216C50.3535 69.8886 49.9024 70.7222 49.9024 71.7226C49.9024 71.9384 49.9318 72.1835 49.9907 72.4582C50.1868 73.3016 50.5693 73.9587 51.1382 74.4295C51.6482 74.8218 52.2366 75.018 52.9035 75.018C53.3743 75.018 53.8156 74.9199 54.2276 74.7237C54.7179 74.4883 55.1102 74.1549 55.4045 73.7233C55.7183 73.2722 55.8752 72.821 55.8752 72.3699C55.8752 71.9187 55.7183 71.5264 55.4045 71.193C55.326 71.1145 55.2868 71.0262 55.2868 70.9282C55.2868 70.8497 55.3064 70.8105 55.3456 70.8105L55.4927 70.8693C55.9243 71.242 56.1401 71.752 56.1401 72.3993C56.1401 72.8897 55.9929 73.3899 55.6987 73.8999C55.4045 74.3903 55.022 74.7728 54.5512 75.0474C53.9235 75.3808 53.2664 75.5476 52.5799 75.5476C51.7953 75.5476 51.0891 75.322 50.4614 74.8708C49.7945 74.3608 49.3434 73.6057 49.108 72.6053C49.0491 72.2718 49.0197 71.9678 49.0197 71.6932C49.0197 70.5359 49.4611 69.5453 50.3437 68.7214C50.8537 68.2703 51.4128 67.9368 52.0208 67.7211C52.6485 67.5053 53.2958 67.3974 53.9628 67.3974C54.2766 67.3974 54.6787 67.4268 55.1691 67.4857C55.6791 67.5249 56.2774 67.5936 56.9639 67.6916C57.4347 67.7701 57.8564 67.8388 58.2291 67.8976C58.6214 67.9368 58.9646 67.9761 59.2589 68.0153L60.4946 68.1918C60.6516 67.4857 60.9066 66.9267 61.2596 66.5147C61.8285 65.8282 62.5346 65.4849 63.3781 65.4849C64.0058 65.4849 64.4471 65.7007 64.7021 66.1322C64.8198 66.3284 64.8787 66.5343 64.8787 66.7501C64.8787 67.4366 64.5158 67.9565 63.79 68.3095C63.1623 68.643 62.2404 68.8097 61.0243 68.8097C61.0439 69.3197 61.1027 69.918 61.2008 70.6045C61.3185 71.291 61.4754 72.0659 61.6716 72.9289L62.1717 75.1945L62.3483 76.2537C62.3875 76.4106 62.4071 76.5577 62.4071 76.6951C62.4071 76.8324 62.4071 76.9795 62.4071 77.1364C62.4071 79.0979 61.7794 80.677 60.5241 81.8735C59.406 82.9916 58.1016 83.5506 56.6108 83.5506ZM62.0541 68.2801C62.7994 68.2801 63.329 68.1918 63.6429 68.0153C64.0744 67.7603 64.2902 67.4072 64.2902 66.9561C64.2902 66.6815 64.2117 66.4657 64.0548 66.3088C63.839 66.0342 63.5252 65.8969 63.1133 65.8969C62.4856 65.8969 61.9364 66.2107 61.4656 66.8384C61.2302 67.1326 61.0831 67.6034 61.0243 68.2507C61.2204 68.2703 61.3969 68.2801 61.5539 68.2801C61.7304 68.2801 61.8971 68.2801 62.0541 68.2801ZM67.834 81.9323C67.7948 81.9323 67.736 81.9323 67.6575 81.9323C67.5987 81.9127 67.53 81.8931 67.4515 81.8735C66.6669 81.697 66.2746 81.0595 66.2746 79.961C66.2746 79.8629 66.2746 79.7648 66.2746 79.6668C66.2942 79.5491 66.3139 79.4412 66.3335 79.3431C66.3923 78.9704 66.4708 78.5977 66.5689 78.225C66.6669 77.8327 66.7846 77.4404 66.9219 77.0481V76.9893C66.9219 76.8127 66.8337 76.7245 66.6571 76.7245C66.5591 76.7245 66.4316 76.7637 66.2746 76.8422C66.0392 76.901 65.8431 76.9304 65.6862 76.9304H65.5096C65.4508 76.9304 65.3625 76.9108 65.2448 76.8716C65.2056 77.2443 65.0781 77.7249 64.8623 78.3133C64.6662 78.8822 64.4308 79.3627 64.1562 79.755C64.117 79.8335 64.0483 79.8727 63.9502 79.8727C63.8129 79.8727 63.8031 79.7747 63.9208 79.5785C64.2543 79.0489 64.4896 78.5291 64.6269 78.0191C64.7839 77.4895 64.8721 77.107 64.8918 76.8716C64.4994 76.597 64.215 76.0674 64.0385 75.2828C64.0189 75.2435 64.0091 75.1749 64.0091 75.0768V74.9003C64.0091 74.351 64.1758 74.0764 64.5093 74.0764C64.7643 74.0764 64.9604 74.2628 65.0977 74.6355C65.1566 74.7924 65.1958 75.0081 65.2154 75.2828C65.2546 75.5378 65.2939 75.8614 65.3331 76.2537C65.4116 76.391 65.5587 76.4597 65.7744 76.4597C66.3041 76.4597 67.0691 76.0772 68.0694 75.3122C68.2852 75.1553 68.4912 75.0768 68.6873 75.0768C68.9227 75.0768 69.0404 75.1847 69.0404 75.4004C69.0404 75.4201 69.0306 75.4593 69.011 75.5181C69.011 75.577 69.0012 75.6456 68.9815 75.7241L68.1577 77.1658C67.8635 77.6758 67.6477 78.1466 67.5104 78.5781C67.3927 79.0097 67.3339 79.3922 67.3339 79.7256C67.3339 80.3925 67.53 80.8143 67.9223 80.9908C68.0008 81.0104 68.0694 81.03 68.1283 81.0496C68.1871 81.0496 68.2362 81.0496 68.2754 81.0496C68.5304 81.0496 68.7854 80.9614 69.0404 80.7848C69.2954 80.5887 69.521 80.2847 69.7171 79.8727L70.0408 79.2254L70.3938 78.6075C70.4135 78.5291 70.4625 78.4899 70.541 78.4899C70.5802 78.4899 70.6194 78.5193 70.6586 78.5781C70.6979 78.6174 70.7077 78.6566 70.6881 78.6958C70.6292 78.8135 70.5311 79.0097 70.3938 79.2843C70.2565 79.5589 70.1192 79.8335 69.9819 80.1081C69.8642 80.3631 69.776 80.5298 69.7171 80.6083C69.1287 81.491 68.501 81.9323 67.834 81.9323ZM74.1048 72.6053C73.889 72.6053 73.6929 72.5268 73.5163 72.3699C73.3594 72.1934 73.281 71.9972 73.281 71.7814C73.281 71.546 73.3594 71.3499 73.5163 71.193C73.6929 71.0361 73.889 70.9576 74.1048 70.9576C74.3402 70.9576 74.5363 71.0361 74.6933 71.193C74.8502 71.3499 74.9286 71.546 74.9286 71.7814C74.9286 71.9972 74.8502 72.1934 74.6933 72.3699C74.5363 72.5268 74.3402 72.6053 74.1048 72.6053ZM71.9569 81.4027C71.8785 81.4027 71.8098 81.4027 71.751 81.4027C71.6921 81.3831 71.6235 81.3635 71.545 81.3439C71.1527 81.2654 70.8585 81.03 70.6623 80.6377C70.4662 80.2258 70.3681 79.6177 70.3681 78.8135C70.3681 78.2054 70.5642 77.3914 70.9566 76.3714C71.1527 75.8222 71.3783 75.4103 71.6333 75.1356C71.8294 74.8806 72.0452 74.7531 72.2806 74.7531C72.3787 74.7531 72.4767 74.8022 72.5748 74.9003C72.614 74.9395 72.6337 74.9983 72.6337 75.0768C72.6337 75.1945 72.5944 75.322 72.516 75.4593L72.2806 76.0183C72.2414 76.1164 72.1923 76.2243 72.1335 76.342C72.0746 76.4597 72.0158 76.597 71.9569 76.7539C71.4469 77.9308 71.1919 78.8037 71.1919 79.3725C71.1919 79.7256 71.2802 80.0395 71.4567 80.3141C71.6725 80.6083 71.9667 80.7554 72.3394 80.7554C72.771 80.7554 73.2319 80.4612 73.7223 79.8727C73.8792 79.6766 74.0263 79.4608 74.1636 79.2254C74.301 78.9704 74.4186 78.735 74.5167 78.5193C74.556 78.4212 74.605 78.3722 74.6638 78.3722C74.8011 78.3722 74.8404 78.4702 74.7815 78.6664C74.6638 78.941 74.5363 79.2156 74.399 79.4902C74.2813 79.7452 74.1342 79.9806 73.9577 80.1964C73.33 81.0006 72.6631 81.4027 71.9569 81.4027ZM74.8307 89.1409C74.7523 89.1409 74.7032 89.1311 74.6836 89.1115C73.9382 89.0134 73.5655 88.2877 73.5655 86.9342C73.5655 86.6596 73.5852 86.3556 73.6244 86.0221C73.6636 85.7083 73.7127 85.365 73.7715 84.9923C73.948 83.9527 74.1736 82.8935 74.4482 81.8146C74.7425 80.7162 75.0857 79.6177 75.478 78.5193C75.2819 78.0485 75.0857 77.617 74.8896 77.2247C74.713 76.8127 74.5169 76.4499 74.3011 76.136C74.203 75.9791 74.154 75.8516 74.154 75.7535C74.154 75.6162 74.2226 75.4789 74.36 75.3416C74.5169 75.2239 74.6444 75.1651 74.7425 75.1651H74.7719C74.7719 75.1847 74.7817 75.1945 74.8013 75.1945H74.8307C75.0465 75.4495 75.2426 75.7437 75.4192 76.0772C75.6153 76.4106 75.8115 76.8324 76.0076 77.3424C76.5569 76.5381 77.1061 75.9595 77.6553 75.6064C78.2242 75.2337 78.8224 75.0474 79.4501 75.0474C80.3132 75.0474 80.9213 75.2926 81.2743 75.7829C81.647 76.2733 81.8334 76.9304 81.8334 77.7543C81.8334 78.1662 81.7745 78.6272 81.6568 79.1372C81.4607 80.0983 81.088 80.8535 80.5388 81.4027C80.0876 81.8539 79.5678 82.0794 78.9794 82.0794C78.5478 82.0794 78.2045 81.9519 77.9496 81.697C77.6553 81.4223 77.5082 81.0595 77.5082 80.6083C77.5082 80.5102 77.5671 80.4612 77.6847 80.4612C77.8024 80.4612 77.8613 80.5102 77.8613 80.6083C77.9201 81.2948 78.2732 81.6381 78.9205 81.6381C79.3913 81.6381 79.8032 81.4125 80.1563 80.9614C80.6074 80.3729 80.833 79.5687 80.833 78.5487C80.833 77.8033 80.6957 77.2247 80.4211 76.8127C80.1072 76.3224 79.6953 76.0772 79.1853 76.0772C78.2242 76.0772 77.2728 76.8324 76.3313 78.3427C76.5471 79.1273 76.7138 79.9218 76.8315 80.726C76.9492 81.5106 77.008 82.3344 77.008 83.1975C77.008 83.6487 76.9884 84.0802 76.9492 84.4921C76.9099 84.9237 76.8609 85.3356 76.8021 85.7279C76.6648 86.4537 76.4588 87.1304 76.1842 87.7581C75.7723 88.68 75.3211 89.1409 74.8307 89.1409ZM74.7425 88.8173H74.8013C75.0171 88.8173 75.2132 88.7094 75.3898 88.4936C75.5663 88.219 75.733 87.8267 75.8899 87.3167C76.1057 86.689 76.2528 86.0613 76.3313 85.4337C76.3705 85.159 76.3999 84.8844 76.4196 84.6098C76.4392 84.3548 76.449 84.09 76.449 83.8154C76.449 82.4619 76.2234 80.981 75.7723 79.3725C75.38 80.2552 75.0563 81.1575 74.8013 82.0794C74.5659 83.0014 74.3698 83.9919 74.2128 85.0512C74.154 85.5219 74.105 85.9338 74.0657 86.2869C74.0265 86.64 74.0069 86.9244 74.0069 87.1402C74.0069 87.6306 74.0559 88.0229 74.154 88.3171C74.2717 88.6113 74.4678 88.7781 74.7425 88.8173Z" fill="black"/>
<defs>
<linearGradient id="paint0_linear_3366_55270" x1="40.9986" y1="0" x2="40.9986" y2="38.844" gradientUnits="userSpaceOnUse">
<stop/>
<stop offset="1"/>
</linearGradient>
</defs>
</svg>
