<svg width="20" height="20" viewBox="0 0 20 20" fill="none" xmlns="http://www.w3.org/2000/svg">
<mask id="path-1-inside-1_11454_13922" fill="white">
<path fill-rule="evenodd" clip-rule="evenodd" d="M15.4143 9.04633C15.3501 5.41996 12.3904 2.5 8.7487 2.5C5.06678 2.5 2.08203 5.48475 2.08203 9.16667C2.08203 10.9042 2.74674 12.4865 3.83575 13.6731L3.33638 16.6774L6.30078 15.4041C7.60691 15.8384 8.83953 15.947 9.9987 15.7298"/>
</mask>
<path d="M3.83575 13.6731L4.82221 13.8371L4.90215 13.3561L4.5725 12.9969L3.83575 13.6731ZM3.33638 16.6774L2.34991 16.5134L2.04991 18.3183L3.73103 17.5962L3.33638 16.6774ZM6.30078 15.4041L6.6163 14.4552L6.2555 14.3352L5.90613 14.4853L6.30078 15.4041ZM15.4143 9.04633L16.4141 9.02864C16.3403 4.85793 12.9368 1.5 8.7487 1.5V2.5V3.5C11.8441 3.5 14.3599 5.98198 14.4144 9.06403L15.4143 9.04633ZM8.7487 2.5V1.5C4.5145 1.5 1.08203 4.93246 1.08203 9.16667H2.08203H3.08203C3.08203 6.03703 5.61907 3.5 8.7487 3.5V2.5ZM2.08203 9.16667H1.08203C1.08203 11.1643 1.84734 12.9854 3.099 14.3492L3.83575 13.6731L4.5725 12.9969C3.64615 11.9876 3.08203 10.6441 3.08203 9.16667H2.08203ZM3.83575 13.6731L2.84928 13.5091L2.34991 16.5134L3.33638 16.6774L4.32284 16.8413L4.82221 13.8371L3.83575 13.6731ZM3.33638 16.6774L3.73103 17.5962L6.69543 16.323L6.30078 15.4041L5.90613 14.4853L2.94173 15.7585L3.33638 16.6774ZM6.30078 15.4041L5.98526 16.353C7.42528 16.8319 8.83097 16.966 10.1828 16.7127L9.9987 15.7298L9.81455 14.7469C8.8481 14.928 7.78853 14.845 6.6163 14.4552L6.30078 15.4041Z" fill="#07689F" mask="url(#path-1-inside-1_11454_13922)"/>
<path d="M15.4143 9.04633C15.3501 5.41996 12.3904 2.5 8.7487 2.5C5.06678 2.5 2.08203 5.48475 2.08203 9.16667C2.08203 10.9042 2.74674 12.4865 3.83575 13.6731L3.33638 16.6774L6.30078 15.4041C7.60691 15.8384 8.83953 15.947 9.9987 15.7298" stroke="#07689F" stroke-linecap="round" stroke-linejoin="round"/>
<path d="M6.30078 8.52759C6.81853 8.52759 7.23828 8.10476 7.23828 7.58313C7.23828 7.06155 6.81853 6.63867 6.30078 6.63867C5.78303 6.63867 5.36328 7.06155 5.36328 7.58313C5.36328 8.10476 5.78303 8.52759 6.30078 8.52759Z" fill="#07689F"/>
<path d="M10.0508 8.52759C10.5685 8.52759 10.9883 8.10476 10.9883 7.58313C10.9883 7.06155 10.5685 6.63867 10.0508 6.63867C9.53303 6.63867 9.11328 7.06155 9.11328 7.58313C9.11328 8.10476 9.53303 8.52759 10.0508 8.52759Z" fill="#07689F"/>
<path d="M16.1521 16.6372C15.4236 17.1792 14.5208 17.5 13.543 17.5C11.1267 17.5 9.16797 15.5412 9.16797 13.125C9.16797 10.7088 11.1267 8.75 13.543 8.75C15.9592 8.75 17.918 10.7088 17.918 13.125C17.918 13.7915 17.7689 14.4233 17.5023 14.9887" stroke="#07689F" stroke-linecap="round" stroke-linejoin="round"/>
<path d="M17.5026 14.9883L17.9183 17.4996L16.1523 16.6368" stroke="#07689F" stroke-linecap="round" stroke-linejoin="round"/>
<path d="M14.8711 12.8337C14.4828 12.8337 14.168 12.5165 14.168 12.1253C14.168 11.7341 14.4828 11.417 14.8711 11.417C15.2594 11.417 15.5742 11.7341 15.5742 12.1253C15.5742 12.5165 15.2594 12.8337 14.8711 12.8337Z" fill="#07689F"/>
<path d="M12.0586 12.8337C11.6703 12.8337 11.3555 12.5165 11.3555 12.1253C11.3555 11.7341 11.6703 11.417 12.0586 11.417C12.4469 11.417 12.7617 11.7341 12.7617 12.1253C12.7617 12.5165 12.4469 12.8337 12.0586 12.8337Z" fill="#07689F"/>
</svg>
