<svg width="24" height="24" viewBox="0 0 24 24" fill="none" xmlns="http://www.w3.org/2000/svg">
<path d="M17 3H4C3.44772 3 3 3.44772 3 4V17C3 17.5523 3.44772 18 4 18H17C17.5523 18 18 17.5523 18 17V4C18 3.44772 17.5523 3 17 3Z" stroke="white" stroke-linejoin="round"/>
<path d="M21 6V19.5C21 20.3285 20.3285 21 19.5 21H6" stroke="white" stroke-linecap="round" stroke-linejoin="round"/>
<path d="M3 12.5001L6.8281 9.0973C7.2102 8.7577 7.7869 8.7609 8.16515 9.1048L13 13.5001" stroke="white" stroke-linecap="round" stroke-linejoin="round"/>
<path d="M11 11.4999L13.3925 9.50617C13.7486 9.20947 14.2619 9.19632 14.6327 9.47442L18 11.9999" stroke="white" stroke-linecap="round" stroke-linejoin="round"/>
<path d="M3 9.5V13.5" stroke="white" stroke-linecap="round" stroke-linejoin="round"/>
<path d="M18 9.5V13.5" stroke="white" stroke-linecap="round" stroke-linejoin="round"/>
</svg>
