<svg width="16" height="16" viewBox="0 0 16 16" fill="none" xmlns="http://www.w3.org/2000/svg">
<path fill-rule="evenodd" clip-rule="evenodd" d="M2.16797 4.66634C2.16797 4.02199 2.69031 3.49967 3.33464 3.49967L11.3346 3.49967C11.979 3.49967 12.5013 4.022 12.5013 4.66634L12.5013 8.66634C12.5013 8.94248 12.2774 9.16634 12.0013 9.16634C11.7252 9.16634 11.5013 8.94248 11.5013 8.66634L11.5013 4.66634C11.5013 4.57428 11.4267 4.49967 11.3346 4.49967L3.33464 4.49967C3.24258 4.49967 3.16797 4.57429 3.16797 4.66634L3.16797 12.6663C3.16797 12.7584 3.24258 12.833 3.33464 12.833L9.0013 12.833C9.27744 12.833 9.5013 13.0569 9.5013 13.333C9.5013 13.6091 9.27744 13.833 9.0013 13.833L3.33464 13.833C2.69031 13.833 2.16797 13.3107 2.16797 12.6663L2.16797 4.66634Z" fill="#0C0C0C"/>
<path fill-rule="evenodd" clip-rule="evenodd" d="M5.33464 3.49967C5.61078 3.49967 5.83464 3.72353 5.83464 3.99967L5.83464 13.333C5.83464 13.6091 5.61078 13.833 5.33464 13.833C5.05849 13.833 4.83464 13.6091 4.83464 13.333L4.83464 3.99967C4.83464 3.72353 5.05849 3.49967 5.33464 3.49967Z" fill="#0C0C0C"/>
<path fill-rule="evenodd" clip-rule="evenodd" d="M9.33464 3.49967C9.61078 3.49967 9.83464 3.72353 9.83464 3.99967L9.83464 9.66634C9.83464 9.94248 9.61078 10.1663 9.33464 10.1663C9.05849 10.1663 8.83464 9.94248 8.83464 9.66634L8.83464 3.99967C8.83464 3.72353 9.05849 3.49967 9.33464 3.49967Z" fill="#0C0C0C"/>
<path fill-rule="evenodd" clip-rule="evenodd" d="M4.83464 1.99967C4.83464 1.35535 5.35696 0.833008 6.0013 0.833008L8.66797 0.833008C9.31232 0.833008 9.83464 1.35535 9.83464 1.99967V3.99967C9.83464 4.27582 9.61078 4.49967 9.33464 4.49967C9.05849 4.49967 8.83464 4.27582 8.83464 3.99967V1.99967C8.83464 1.90762 8.76002 1.83301 8.66797 1.83301L6.0013 1.83301C5.90925 1.83301 5.83464 1.90762 5.83464 1.99967V3.99967C5.83464 4.27582 5.61078 4.49967 5.33464 4.49967C5.05849 4.49967 4.83464 4.27582 4.83464 3.99967V1.99967Z" fill="#0C0C0C"/>
<path fill-rule="evenodd" clip-rule="evenodd" d="M8.16797 11.6663C8.16797 9.73333 9.73496 8.16634 11.668 8.16634C13.601 8.16634 15.168 9.73333 15.168 11.6663C15.168 13.5994 13.601 15.1663 11.668 15.1663C9.73496 15.1663 8.16797 13.5994 8.16797 11.6663ZM11.668 9.16634C10.2872 9.16634 9.16797 10.2856 9.16797 11.6663C9.16797 13.0471 10.2872 14.1663 11.668 14.1663C13.0487 14.1663 14.168 13.0471 14.168 11.6663C14.168 10.2856 13.0487 9.16634 11.668 9.16634Z" fill="#0C0C0C"/>
<path fill-rule="evenodd" clip-rule="evenodd" d="M11.3346 10.1663C11.6108 10.1663 11.8346 10.3902 11.8346 10.6663V11.4997H12.668C12.9441 11.4997 13.168 11.7235 13.168 11.9997C13.168 12.2758 12.9441 12.4997 12.668 12.4997H11.3346C11.0585 12.4997 10.8346 12.2758 10.8346 11.9997V10.6663C10.8346 10.3902 11.0585 10.1663 11.3346 10.1663Z" fill="#0C0C0C"/>
<path fill-rule="evenodd" clip-rule="evenodd" d="M4.33464 12.833C4.61078 12.833 4.83464 13.0569 4.83464 13.333V14.6663C4.83464 14.9425 4.61078 15.1663 4.33464 15.1663C4.05849 15.1663 3.83464 14.9425 3.83464 14.6663L3.83464 13.333C3.83464 13.0569 4.05849 12.833 4.33464 12.833Z" fill="#0C0C0C"/>
</svg>
