<svg width="173" height="169" viewBox="0 0 173 169" fill="none" xmlns="http://www.w3.org/2000/svg">
<g filter="url(#filter0_d_10663_3917)">
<path d="M14.7321 -0.000232581L10.7143 10.7144L32.143 10.714L14.7321 -0.000232581Z" fill="#043E5F"/>
<path d="M145.983 120.536V147.322H162.055L145.983 120.536Z" fill="#043E5F"/>
<path fill-rule="evenodd" clip-rule="evenodd" d="M86.6955 5.16763L14.7333 0.000976563C17.0449 1.8511 19.2952 3.65096 21.4883 5.40496C84.2484 55.6014 100.067 68.2534 162.055 147.322L156.875 75.175C142.981 58.4237 130.993 43.9865 123.295 34.7495C113.134 26.7657 100.528 16.5483 86.6955 5.16763Z" fill="url(#paint0_radial_10663_3917)"/>
<path d="M95.1663 30.2683L82.9475 35.7922L81.6111 34.4558L87.135 22.237L88.3696 23.4716L83.5076 33.9085L93.9445 29.0464L95.1663 30.2683ZM97.5946 32.6965L88.7232 41.5679L87.565 40.4097L96.4363 31.5383L97.5946 32.6965ZM102.903 43.1983C102.165 43.9365 101.295 44.2971 100.294 44.2801C99.3098 44.2632 98.3001 43.7371 97.2649 42.7019L95.5593 40.9963L91.8555 44.7002L90.6972 43.5419L99.5686 34.6706L102.432 37.5343C103.434 38.5356 103.951 39.5369 103.985 40.5381C104.028 41.5479 103.667 42.4346 102.903 43.1983ZM98.2195 41.7473C98.8643 42.3922 99.4795 42.7273 100.065 42.7528C100.65 42.7782 101.202 42.5322 101.72 42.0146C102.814 40.92 102.734 39.7448 101.478 38.4889L99.7723 36.7834L96.5139 40.0417L98.2195 41.7473ZM114.482 54.726C114.753 53.9623 114.796 53.2071 114.609 52.4604C114.431 51.7052 114.032 51.0179 113.413 50.3985C112.793 49.7791 112.089 49.3633 111.3 49.1511C110.528 48.939 109.73 48.956 108.907 49.2021C108.101 49.4481 107.35 49.9191 106.654 50.6149C105.958 51.3107 105.488 52.0616 105.241 52.8677C105.004 53.6823 104.987 54.4799 105.191 55.2606C105.411 56.0412 105.831 56.7412 106.451 57.3607C107.316 58.2262 108.288 58.6801 109.365 58.7225C110.443 58.765 111.47 58.3916 112.445 57.6025L108.907 54.0641L109.849 53.1223L114.622 57.8952L113.731 58.7862C112.933 59.448 112.034 59.8893 111.033 60.1099C110.04 60.322 109.047 60.2881 108.054 60.0081C107.07 59.7196 106.188 59.185 105.407 58.4043C104.584 57.5813 104.024 56.6394 103.727 55.5788C103.438 54.5096 103.438 53.432 103.727 52.3459C104.024 51.2682 104.605 50.2967 105.471 49.4312C106.336 48.5657 107.308 47.9844 108.385 47.6874C109.48 47.3905 110.558 47.3905 111.618 47.6874C112.687 47.9759 113.633 48.5317 114.457 49.3548C115.398 50.2967 115.997 51.3616 116.251 52.5495C116.514 53.7459 116.387 54.9339 115.869 56.1133L114.482 54.726ZM120.074 56.7029C119.853 56.4823 119.743 56.2192 119.743 55.9138C119.743 55.6083 119.853 55.3452 120.074 55.1246C120.294 54.904 120.557 54.7937 120.863 54.7937C121.168 54.7937 121.431 54.904 121.652 55.1246C121.864 55.3368 121.966 55.5913 121.957 55.8883C121.957 56.1938 121.847 56.4568 121.626 56.6774C121.406 56.898 121.143 57.0084 120.837 57.0084C120.54 57.0168 120.286 56.915 120.074 56.7029ZM119.501 58.3957L112.526 65.3706L111.368 64.2124L118.343 57.2375L119.501 58.3957ZM123.359 64.1626L121.895 62.6989L115.875 68.7192L114.716 67.561L120.737 61.5407L119.833 60.637L120.788 59.6824L121.691 60.5861L122.188 60.0897C122.968 59.3091 123.736 58.9399 124.491 58.9824C125.264 59.0248 126.095 59.4915 126.986 60.3824L126.019 61.3498C125.51 60.8407 125.047 60.5819 124.631 60.5734C124.233 60.5649 123.804 60.7897 123.346 61.2479L122.849 61.7443L124.313 63.208L123.359 64.1626ZM126.122 66.9259L122.011 71.037C121.671 71.3764 121.502 71.6904 121.502 71.9789C121.51 72.2589 121.693 72.5771 122.049 72.9335L122.902 73.7862L121.922 74.7663L120.878 73.7226C120.233 73.0777 119.898 72.4456 119.872 71.8261C119.847 71.2067 120.174 70.5576 120.852 69.8788L124.964 65.7677L124.06 64.864L125.015 63.9094L125.918 64.8131L127.675 63.0566L128.833 64.2148L127.076 65.9713L128.897 67.7914L127.942 68.746L126.122 66.9259ZM125.68 78.7534C125.145 78.2188 124.755 77.6503 124.509 77.0479C124.271 76.4369 124.19 75.8472 124.267 75.2787C124.352 74.7017 124.594 74.1883 124.992 73.7386L126.189 74.935C125.875 75.3169 125.752 75.7624 125.82 76.2715C125.896 76.7891 126.172 77.2855 126.647 77.7606C127.088 78.2019 127.534 78.4522 127.983 78.5116C128.433 78.571 128.806 78.4522 129.103 78.1552C129.409 77.8497 129.498 77.4891 129.371 77.0733C129.252 76.6491 128.98 76.0805 128.556 75.3678C128.174 74.7144 127.886 74.1544 127.691 73.6877C127.512 73.221 127.44 72.7331 127.474 72.224C127.525 71.7149 127.776 71.2355 128.225 70.7857C128.582 70.4294 129.014 70.2087 129.523 70.1239C130.033 70.039 130.567 70.1069 131.127 70.3275C131.696 70.5397 132.23 70.896 132.731 71.3967C133.503 72.1688 133.932 72.9877 134.016 73.8532C134.101 74.7187 133.821 75.5078 133.176 76.2206L132.018 75.0623C132.358 74.672 132.502 74.2308 132.451 73.7386C132.408 73.255 132.162 72.7883 131.713 72.3385C131.297 71.9228 130.877 71.6809 130.453 71.613C130.028 71.5452 129.672 71.6555 129.383 71.944C129.154 72.1731 129.036 72.4361 129.027 72.7331C129.036 73.0301 129.103 73.3356 129.231 73.6495C129.375 73.9635 129.591 74.375 129.88 74.8841C130.245 75.5205 130.516 76.0636 130.694 76.5133C130.881 76.9545 130.953 77.417 130.911 77.9006C130.877 78.3928 130.652 78.8552 130.236 79.288C129.854 79.6698 129.405 79.9074 128.887 80.0007C128.369 80.0941 127.826 80.0347 127.258 79.8226C126.706 79.6104 126.18 79.254 125.68 78.7534Z" fill="white"/>
</g>
<defs>
<filter id="filter0_d_10663_3917" x="0.000557899" y="0" width="172.768" height="168.751" filterUnits="userSpaceOnUse" color-interpolation-filters="sRGB">
<feFlood flood-opacity="0" result="BackgroundImageFix"/>
<feColorMatrix in="SourceAlpha" type="matrix" values="0 0 0 0 0 0 0 0 0 0 0 0 0 0 0 0 0 0 127 0" result="hardAlpha"/>
<feOffset dy="10.7143"/>
<feGaussianBlur stdDeviation="5.35714"/>
<feComposite in2="hardAlpha" operator="out"/>
<feColorMatrix type="matrix" values="0 0 0 0 0 0 0 0 0 0 0 0 0 0 0 0 0 0 0.2 0"/>
<feBlend mode="normal" in2="BackgroundImageFix" result="effect1_dropShadow_10663_3917"/>
<feBlend mode="normal" in="SourceGraphic" in2="effect1_dropShadow_10663_3917" result="shape"/>
</filter>
<radialGradient id="paint0_radial_10663_3917" cx="0" cy="0" r="1" gradientUnits="userSpaceOnUse" gradientTransform="translate(107.257 44.1064) rotate(145.692) scale(137.532)">
<stop stop-color="#3C9BD0"/>
<stop offset="1" stop-color="#043E5F"/>
</radialGradient>
</defs>
</svg>
